<svg width="174" height="64" viewBox="0 0 174 64" fill="none" xmlns="http://www.w3.org/2000/svg">
<g id="Logo">
<path id="Union" fill-rule="evenodd" clip-rule="evenodd" d="M60.6624 17.8231C60.6577 18.0876 60.7516 18.3444 60.9256 18.5436C61.0997 18.7428 61.3415 18.8702 61.6042 18.9011C61.8554 18.8686 62.0877 18.7505 62.262 18.5667C62.4362 18.3829 62.5418 18.1446 62.5609 17.892C62.5689 17.6267 62.4749 17.3683 62.2981 17.1702C62.1214 16.9721 61.8754 16.8493 61.6108 16.8272C61.3564 16.8433 61.1174 16.9548 60.9415 17.1394C60.7657 17.3241 60.666 17.5682 60.6624 17.8231ZM16.9028 18.5775C16.7183 18.7641 16.4727 18.8778 16.211 18.8978C15.9621 18.8618 15.7339 18.7387 15.5672 18.5503C15.4005 18.3619 15.3059 18.1206 15.3004 17.8691C15.2927 17.6049 15.3887 17.3483 15.5677 17.1539C15.7468 16.9595 15.9947 16.8429 16.2586 16.8289C16.5199 16.8556 16.7621 16.9779 16.9387 17.1723C17.1152 17.3668 17.2137 17.6196 17.2152 17.8822C17.1982 18.144 17.0872 18.3909 16.9028 18.5775ZM46.7454 27.7589C46.2886 27.9322 45.8007 28.009 45.3127 27.9842C44.5498 27.9213 43.7814 27.9369 43.0145 27.9524L43.0145 27.9524C42.6615 27.9595 42.3089 27.9667 41.9572 27.9662H38.5968C37.9821 27.9662 37.3678 27.9668 36.7538 27.9675C35.0145 27.9694 33.2779 27.9713 31.5413 27.958C31.3613 27.9297 31.1773 27.9716 31.0274 28.0752C30.8775 28.1787 30.773 28.3359 30.7357 28.5142C30.5595 29.2295 30.1298 29.8566 29.5263 30.279C28.9228 30.7015 28.1864 30.8906 27.454 30.8112C27.1863 30.8108 26.9187 30.8094 26.651 30.808H26.6509C25.8209 30.8038 24.9909 30.7995 24.1609 30.8243C23.6801 30.8391 23.4832 30.7259 23.5046 30.214C23.5133 30.0045 23.5143 29.8315 23.5152 29.6887C23.517 29.3689 23.518 29.2007 23.6026 29.1134C23.6964 29.0164 23.8932 29.019 24.3083 29.0245L24.3084 29.0245H24.3085H24.3085H24.3085H24.3086H24.3086H24.3087H24.3087H24.3088H24.3089L24.309 29.0245C24.4212 29.026 24.5494 29.0277 24.6958 29.0277H27.6608C27.9919 29.0448 28.3198 28.9556 28.5967 28.7732C28.8735 28.5908 29.0849 28.3247 29.1999 28.0138C29.2606 27.8497 29.336 27.6429 29.1999 27.5215C29.1038 27.4359 29.0028 27.4866 28.9022 27.5371C28.8601 27.5582 28.8181 27.5793 28.7765 27.5904C27.417 27.9634 25.984 27.9781 24.617 27.6331C23.8027 27.379 23.113 26.8291 22.6841 26.0916C22.2553 25.3542 22.1183 24.4828 22.3002 23.6494C22.41 22.8464 22.8116 22.1118 23.4284 21.5859C24.0451 21.06 24.8339 20.7795 25.6442 20.7978H27.4885C27.9408 20.775 28.3931 20.8449 28.8174 21.0033C29.2418 21.1617 29.6292 21.4052 29.9559 21.7188C30.2827 22.0325 30.5418 22.4097 30.7174 22.8272C30.8929 23.2447 30.9812 23.6937 30.9769 24.1465C31.0058 24.5838 31.0014 25.0226 30.9637 25.4591C30.8997 26.0285 31.0802 26.2155 31.6775 26.2155C33.6047 26.1905 35.5319 26.1931 37.4591 26.1958C38.0571 26.1966 38.6551 26.1975 39.2532 26.1975H41.296C41.521 26.2064 41.7456 26.1695 41.956 26.089C42.1663 26.0086 42.3582 25.8862 42.5199 25.7295C42.6816 25.5727 42.8098 25.3847 42.8967 25.1769C42.9836 24.9691 43.0274 24.7458 43.0254 24.5206C43.0521 24.2895 43.0279 24.0554 42.9546 23.8347C42.8813 23.6139 42.7607 23.4118 42.6011 23.2425C42.4415 23.0733 42.2469 22.9409 42.0308 22.8548C41.8147 22.7686 41.5824 22.7307 41.3501 22.7437C39.3303 22.7191 37.3088 22.7093 35.2889 22.7437C34.7245 22.7536 34.5161 22.6289 34.5391 22.0284C34.5445 21.8786 34.547 21.7493 34.5491 21.6378C34.5559 21.277 34.5592 21.1022 34.6481 21.02C34.7317 20.9427 34.8909 20.9472 35.1997 20.956C35.3216 20.9594 35.4669 20.9635 35.6401 20.9635C36.317 20.9599 36.994 20.966 37.6708 20.9721H37.6708C38.8395 20.9826 40.0077 20.9932 41.1746 20.9537C41.72 20.9336 42.2623 21.0448 42.7558 21.2781C43.2492 21.5113 43.6794 21.8598 44.0101 22.294C44.3407 22.7282 44.5622 23.2355 44.6558 23.7732C44.7495 24.3109 44.7125 24.8632 44.5481 25.3837C44.3036 26.2128 44.3643 26.2112 44.9005 26.197C44.9798 26.1949 45.0694 26.1925 45.17 26.1925C46.796 26.204 47.4015 25.6101 47.4015 23.994C47.403 23.6188 47.4047 23.2435 47.4064 22.8682V22.8673V22.8663V22.8654V22.8644V22.8635V22.8625V22.8616V22.8606V22.8597V22.8587V22.8578V22.8568V22.8559V22.8549V22.8539V22.8529V22.8519V22.851V22.85V22.849V22.848V22.8469V22.8459C47.4141 21.1214 47.4218 19.396 47.4097 17.6706C47.4064 17.1554 47.5114 16.9011 48.0988 16.9569C48.1816 16.9648 48.2634 16.9671 48.3421 16.9694C48.7374 16.9806 49.0546 16.9897 49.0341 17.6903C48.9668 19.9118 48.9816 22.1252 49.0226 24.3418C49.0384 24.8302 48.9528 25.3165 48.7711 25.77C48.5893 26.2236 48.3155 26.6345 47.9668 26.9769C47.6181 27.3192 47.2022 27.5855 46.7454 27.7589ZM26.9919 26.0226C27.2696 26.0299 27.5475 26.0372 27.8232 26.0153L27.8216 26.017C28.2492 25.9618 28.6416 25.7512 28.924 25.4253C29.2063 25.0994 29.3588 24.681 29.3525 24.2499C29.3549 23.8291 29.199 23.4227 28.9157 23.1114C28.6324 22.8002 28.2425 22.6069 27.8232 22.5698C27.0143 22.5263 26.2037 22.5263 25.3948 22.5698C24.9533 22.6111 24.5458 22.8247 24.2608 23.1644C23.9757 23.5041 23.8361 23.9425 23.8721 24.3844C23.8936 24.814 24.0754 25.2198 24.3817 25.5218C24.6879 25.8237 25.0963 25.9999 25.5261 26.0153H26.5762C26.7145 26.0153 26.8532 26.019 26.9919 26.0226ZM81.9899 21.0259H84.0917C84.5548 21.0063 85.0169 21.0823 85.4492 21.249C85.8816 21.4158 86.2751 21.6697 86.6051 21.9951C86.9351 22.3204 87.1946 22.7102 87.3674 23.1402C87.5402 23.5702 87.6227 24.0311 87.6097 24.4944C87.6162 25.4245 87.2538 26.3193 86.6017 26.9827C85.9497 27.646 85.0613 28.0239 84.1311 28.0334C81.6385 27.9883 79.1451 27.9978 76.6514 28.0074C75.6092 28.0114 74.567 28.0154 73.5248 28.0154C72.6204 28.0154 71.7159 28.0146 70.8114 28.0137L70.8083 28.0137C68.0909 28.0113 65.3735 28.0088 62.6561 28.0285C62.1113 28.0318 61.9866 27.8661 61.9997 27.3558C62.0212 26.2624 62.013 25.168 62.0049 24.0742V24.0739V24.0737V24.0734V24.0731V24.0729V24.0726V24.0723V24.0721V24.0718V24.0715V24.0713V24.071V24.0707V24.0705V24.0702V24.0699V24.0696V24.0694V24.0691V24.0688V24.0686V24.0683V24.068V24.0673V24.0668V24.0662C62.0031 23.8233 62.0012 23.5805 61.9997 23.3377C62.0288 23.052 61.985 22.7636 61.8725 22.4994C61.7601 22.2351 61.5826 22.0037 61.3565 21.8265C61.1173 21.656 60.8353 21.5557 60.5422 21.5367C60.249 21.5178 59.9564 21.581 59.6973 21.7192C59.4381 21.8575 59.2227 22.0654 59.0752 22.3194C58.9277 22.5734 58.8541 22.8636 58.8625 23.1572C58.8197 23.8308 58.823 24.5076 58.8263 25.1841V25.1842V25.1842V25.1842V25.1843V25.1843V25.1844V25.1844V25.1844V25.1845V25.1845V25.1845V25.1846V25.1846V25.1846V25.1847V25.1847V25.1847V25.1848V25.1848V25.1848V25.1849V25.1849V25.1849V25.185C58.8272 25.365 58.828 25.545 58.828 25.7249C58.828 25.9092 58.8251 26.0953 58.8222 26.2822V26.2825V26.2828V26.2831V26.2835V26.2838V26.2841V26.2844V26.2847V26.285V26.2853V26.2856V26.2859V26.2862V26.2866V26.2869V26.2872V26.2875V26.2878V26.2881V26.2884V26.2887V26.289V26.2893V26.2896V26.2897V26.2897V26.2897V26.2898V26.2898V26.2898V26.2899V26.2899V26.29V26.29V26.29V26.2901V26.2901V26.2901V26.2902V26.2902V26.2903V26.2903V26.2903V26.2904V26.2904V26.2904V26.2905V26.2905C58.8164 26.6716 58.8105 27.0561 58.828 27.4362C58.8477 27.8595 58.7181 28.0236 58.2751 28.0236L58.2164 28.024C57.7185 28.0272 57.469 28.0289 57.344 27.9049C57.2184 27.7805 57.2184 27.5294 57.2184 27.026C57.2184 26.6614 57.2158 26.2966 57.2132 25.9317C57.2065 25.0009 57.1999 24.0696 57.2364 23.1408C57.2108 22.4749 57.3894 21.8172 57.7484 21.2558C58.1074 20.6945 58.6296 20.2564 59.2448 20.0004C59.7369 19.7993 60.2713 19.7243 60.7997 19.7822C61.3281 19.8401 61.8337 20.029 62.2705 20.3318C62.7073 20.6347 63.0616 21.0418 63.3012 21.5163C63.5407 21.9908 63.6579 22.5176 63.6422 23.0489C63.6816 23.9234 63.6684 24.8045 63.6422 25.6823C63.6307 26.1039 63.7456 26.2532 64.1919 26.2434C65.5319 26.2139 66.8713 26.2111 68.2102 26.2352C68.732 26.2434 68.8961 26.1696 68.732 25.5789C68.4751 24.8245 68.4812 24.0053 68.7493 23.2548C69.0175 22.5043 69.5319 21.8667 70.2088 21.4459C70.6778 21.1549 71.2205 21.0045 71.7725 21.0127C72.0398 21.0146 72.3072 21.017 72.5747 21.0193C73.7123 21.0293 74.8505 21.0393 75.9877 21.0127C76.4669 21.0029 76.5259 21.2063 76.5259 21.5968L76.5261 21.6308C76.531 22.7898 76.531 22.7979 75.3593 22.7979C74.8098 22.8026 74.2618 22.8024 73.7132 22.8022H73.7131H73.713H73.7129H73.7128H73.7127H73.7127H73.7126H73.7125H73.7124H73.7123H73.7122C73.1209 22.802 72.5288 22.8017 71.9333 22.8077C71.7019 22.7836 71.4682 22.8113 71.2489 22.8889C71.0297 22.9665 70.8305 23.0919 70.6658 23.2561C70.5011 23.4203 70.3751 23.6192 70.2969 23.8382C70.2187 24.0572 70.1903 24.2909 70.2137 24.5223C70.1953 24.7551 70.2277 24.9891 70.3087 25.2082C70.3897 25.4273 70.5173 25.6262 70.6827 25.7911C70.8481 25.956 71.0474 26.083 71.2667 26.1634C71.486 26.2438 71.7202 26.2755 71.953 26.2565C73.0646 26.2664 74.1734 26.2664 75.2816 26.2664C76.3897 26.2664 77.4973 26.2664 78.6065 26.2762C79.1135 26.2811 79.1824 26.1367 79.0397 25.6609C78.7219 24.7951 78.7588 23.8389 79.1422 23.0002C79.5257 22.1614 80.2247 21.5079 81.0874 21.1817C81.3761 21.0747 81.682 21.0218 81.9899 21.0259ZM82.1523 26.2762C82.8535 26.2948 83.5547 26.2948 84.2558 26.2762L84.2591 26.2729C84.7029 26.2576 85.1241 26.0732 85.4365 25.7575C85.7488 25.4418 85.9287 25.0187 85.9393 24.5748C85.9551 24.3498 85.9252 24.1239 85.8513 23.9108C85.7775 23.6977 85.6612 23.5018 85.5096 23.3348C85.3579 23.1678 85.1741 23.0333 84.969 22.9393C84.764 22.8454 84.542 22.7939 84.3166 22.788C84.0836 22.7771 83.8499 22.7807 83.616 22.7844C83.499 22.7862 83.3819 22.788 83.2648 22.788C83.1406 22.788 83.0165 22.7864 82.8923 22.7847C82.644 22.7814 82.3957 22.7782 82.1474 22.788C81.9215 22.7813 81.6968 22.8223 81.4878 22.9082C81.2788 22.9941 81.0903 23.123 80.9344 23.2866C80.7785 23.4502 80.6589 23.6448 80.5832 23.8577C80.5075 24.0706 80.4775 24.297 80.4951 24.5223C80.4838 24.7474 80.5182 24.9726 80.5962 25.1841C80.6743 25.3956 80.7943 25.5892 80.9492 25.753C81.104 25.9169 81.2904 26.0478 81.4972 26.1377C81.704 26.2276 81.9268 26.2747 82.1523 26.2762ZM20.121 24.473C20.1417 24.0333 20.074 23.594 19.9219 23.1809C19.7698 22.7679 19.5364 22.3895 19.2354 22.0683C18.9345 21.747 18.5722 21.4894 18.1699 21.3106C17.7677 21.1318 17.3336 21.0356 16.8935 21.0275C16.6965 21.0275 16.4991 21.0316 16.3017 21.0357H16.3017C15.8614 21.0448 15.4209 21.0539 14.9836 21.0177C14.4118 20.9921 13.8425 21.1088 13.3269 21.3573C12.8112 21.6059 12.3654 21.9785 12.0292 22.4418C11.6931 22.9051 11.4772 23.4446 11.4009 24.0118C11.3246 24.5791 11.3902 25.1565 11.592 25.6921C11.7561 26.1531 11.6691 26.2746 11.2032 26.2713C10.2195 26.2672 9.23622 26.2682 8.25294 26.2693H8.25291H8.25288H8.25285H8.25282H8.25279H8.25277H8.25274H8.25271H8.25268H8.25265H8.25262H8.25259H8.25257H8.25254H8.25251H8.25248H8.25245H8.25242H8.25239H8.25237H8.25234H8.25231H8.25228C6.88692 26.2707 5.52166 26.2722 4.15583 26.2598C3.92434 26.2635 3.69451 26.2201 3.48039 26.132C3.26627 26.0439 3.07236 25.9131 2.9105 25.7476C2.74864 25.582 2.62223 25.3852 2.539 25.1692C2.45577 24.9532 2.41745 24.7224 2.42641 24.4911C2.41811 24.2591 2.45946 24.0279 2.54767 23.8132C2.63589 23.5984 2.76895 23.405 2.93795 23.2458C3.10695 23.0865 3.308 22.9653 3.52765 22.89C3.7473 22.8147 3.98049 22.7872 4.21162 22.8093C4.95771 22.8039 5.70452 22.8057 6.4511 22.8075H6.45128H6.45146H6.45164H6.45182H6.45201H6.45219H6.45237H6.45255H6.45273H6.45291H6.4531H6.45328H6.45346H6.45364H6.45382H6.454H6.45419H6.45437H6.45455H6.45473H6.45491H6.45509H6.45528C6.82708 22.8084 7.19882 22.8093 7.57038 22.8093C7.6591 22.8093 7.74146 22.8096 7.81793 22.8099H7.81815H7.81834H7.81852H7.8187H7.81886H7.81901H7.81914H7.81927H7.81939H7.8195H7.8196H7.8197H7.81978C8.3917 22.8117 8.63308 22.8125 8.73402 22.6938C8.80773 22.6072 8.80655 22.4568 8.8045 22.1966V22.1966V22.1966C8.80328 22.0409 8.80175 21.8459 8.81576 21.6018C8.84366 21.1095 8.63691 21.0177 8.20374 21.0259C7.38418 21.039 6.56316 21.0346 5.74311 21.0302C5.33346 21.028 4.92404 21.0259 4.51517 21.0259C4.05465 20.9927 3.59177 21.032 3.14345 21.1424C2.37118 21.4149 1.71686 21.946 1.29135 22.6457C0.865829 23.3454 0.695269 24.1706 0.80856 24.9817C0.896435 25.8079 1.28312 26.5735 1.89592 27.1346C2.50871 27.6957 3.30539 28.0136 4.13614 28.0285C5.54184 28.0383 6.94681 28.0351 8.35153 28.0318C9.0538 28.0301 9.75601 28.0285 10.4582 28.0285C11.1214 28.0285 11.7846 28.0312 12.4477 28.034L12.4483 28.034C13.9589 28.0403 15.4693 28.0465 16.9788 28.0203C17.4197 27.9983 17.8517 27.8885 18.2495 27.6973C18.6473 27.5062 19.003 27.2375 19.2956 26.9071C19.5883 26.5768 19.812 26.1913 19.9538 25.7733C20.0955 25.3553 20.1524 24.9133 20.121 24.473ZM16.7639 26.2778C16.1076 26.291 15.4512 26.2943 14.7949 26.2778C14.5645 26.28 14.3359 26.2362 14.1226 26.149C13.9093 26.0618 13.7155 25.9329 13.5526 25.7699C13.3897 25.6069 13.261 25.413 13.174 25.1996C13.087 24.9862 13.0434 24.7576 13.0458 24.5272C13.0312 24.2954 13.066 24.0631 13.148 23.8457C13.2299 23.6283 13.357 23.4308 13.521 23.2663C13.6849 23.1017 13.8819 22.9738 14.099 22.8911C14.3161 22.8084 14.5482 22.7727 14.7801 22.7864C15.0142 22.7776 15.2483 22.7805 15.4824 22.7834L15.4825 22.7834C15.5995 22.7849 15.7165 22.7864 15.8336 22.7864H16.7541C16.9854 22.7708 17.2175 22.8047 17.4347 22.8858C17.6519 22.967 17.8494 23.0936 18.0138 23.2571C18.1782 23.4206 18.3059 23.6173 18.3883 23.834C18.4707 24.0508 18.506 24.2826 18.4917 24.5141C18.5016 24.7452 18.464 24.9759 18.3811 25.1919C18.2983 25.4079 18.172 25.6046 18.01 25.7698C17.848 25.935 17.6538 26.0652 17.4395 26.1523C17.2251 26.2394 16.9952 26.2832 16.7639 26.2778ZM102.136 27.7187C101.724 27.8898 101.281 27.9746 100.835 27.9678C99.9105 27.9733 98.9788 27.9714 98.056 27.9696L98.0552 27.9696C97.5973 27.9687 97.1417 27.9678 96.6901 27.9678H92.6061C91.7294 27.9783 90.8843 27.6409 90.256 27.0295C89.6276 26.4181 89.2673 25.5826 89.2539 24.706C89.2302 23.3248 89.2311 21.9437 89.232 20.5628C89.2327 19.5504 89.2334 18.5381 89.2243 17.5262C89.2211 17.0832 89.3802 16.9618 89.8003 16.9716C89.8934 16.9738 89.9783 16.9753 90.0556 16.9767C90.5011 16.9847 90.6958 16.9882 90.7771 17.086C90.8402 17.162 90.8348 17.2949 90.8252 17.5309V17.5309V17.5309V17.5309V17.5309V17.531V17.531V17.531V17.531V17.531V17.5311V17.5311C90.8203 17.653 90.8143 17.8023 90.8159 17.9856C90.8225 18.9372 90.8203 19.8888 90.8181 20.8405C90.817 21.3163 90.8159 21.7921 90.8159 22.2679C90.8159 22.5027 90.8137 22.7372 90.8116 22.9717V22.972V22.9724V22.9728V22.9731V22.9735V22.9738V22.9742V22.9746V22.9749V22.9753V22.9757V22.976V22.9764V22.9768V22.9771V22.9775V22.9779V22.9782V22.9786V22.979V22.9793V22.9797C90.8072 23.4455 90.8028 23.9109 90.8159 24.3762C90.8049 24.6239 90.8467 24.871 90.9385 25.1012C91.0304 25.3315 91.1702 25.5395 91.3487 25.7115C91.5272 25.8834 91.7403 26.0154 91.9738 26.0987C92.2073 26.1819 92.4558 26.2145 92.7029 26.1942H100.674C100.915 26.2219 101.159 26.1971 101.389 26.1215C101.619 26.046 101.831 25.9214 102.008 25.7565C102.186 25.5915 102.325 25.3901 102.418 25.166C102.51 24.9419 102.553 24.7004 102.543 24.4583C102.557 24.2154 102.517 23.9724 102.425 23.7469C102.334 23.5215 102.193 23.3192 102.014 23.1548C101.834 22.9903 101.621 22.8678 101.388 22.7962C101.155 22.7245 100.91 22.7055 100.669 22.7404C100.368 22.7401 100.066 22.7397 99.7646 22.7392C98.3317 22.7369 96.8989 22.7346 95.466 22.7536C94.9787 22.7618 94.7556 22.665 94.772 22.1055L94.7745 22.0103V22.0102C94.7882 21.4987 94.7951 21.2399 94.928 21.109C95.0641 20.975 95.3321 20.975 95.8746 20.975L96.3514 20.9726C97.8612 20.9649 99.371 20.9572 100.881 20.975C101.339 20.9633 101.795 21.0502 102.217 21.2296C102.639 21.4091 103.017 21.677 103.327 22.0153C103.636 22.3536 103.869 22.7543 104.011 23.1905C104.152 23.6267 104.198 24.0881 104.146 24.5436C104.168 24.9895 104.098 25.4351 103.941 25.8529C103.783 26.2707 103.542 26.6518 103.232 26.9727C102.922 27.2937 102.549 27.5475 102.136 27.7187ZM104.159 38.1535C104.159 37.7859 104.042 37.6235 103.667 37.6613C103.47 37.6841 103.272 37.6841 103.076 37.6613C102.662 37.6071 102.533 37.7925 102.546 38.183C102.566 38.7737 102.556 39.3676 102.546 39.9599C102.546 41.051 101.919 41.8008 101.013 41.8074C100.783 41.7965 100.558 41.7382 100.351 41.6361C100.145 41.534 99.9617 41.3903 99.8133 41.214C99.6649 41.0378 99.5546 40.8328 99.4892 40.6119C99.4238 40.391 99.4048 40.159 99.4333 39.9304V38.0878C99.4333 37.7843 99.3397 37.6744 99.0214 37.6563L98.982 37.654C98.4006 37.619 98.1097 37.6016 97.9645 37.7385C97.8191 37.8755 97.8195 38.1672 97.8204 38.7507V38.7556V39.7401C97.7334 40.2988 97.7973 40.8707 98.0054 41.3965C98.2135 41.9223 98.5583 42.3831 99.0041 42.731C99.4499 43.0789 99.9806 43.3015 100.541 43.3756C101.102 43.4498 101.672 43.3729 102.193 43.1528C102.203 43.1501 102.214 43.1469 102.224 43.1434C102.24 43.1381 102.256 43.1321 102.272 43.1261C102.388 43.0826 102.506 43.0387 102.531 43.2561C102.653 44.3374 102.349 45.5089 100.938 45.5532C100.456 45.5799 99.9732 45.5739 99.4923 45.5351C98.9525 45.4761 98.7769 45.6861 98.836 46.1914C98.8544 46.344 98.8544 46.4982 98.836 46.6508C98.7917 47.0577 98.9722 47.1906 99.3676 47.1709C99.6856 47.1556 100.005 47.1581 100.323 47.1606C100.552 47.1624 100.781 47.1642 101.008 47.1594C101.421 47.161 101.83 47.0803 102.212 46.9219C102.593 46.7635 102.939 46.5307 103.229 46.2371C103.52 45.9435 103.748 45.5949 103.902 45.2118C104.056 44.8287 104.132 44.4188 104.126 44.006C104.137 43.3783 104.133 42.7515 104.13 42.1244V42.1242V42.124V42.1238V42.1236V42.1234V42.1233V42.1231V42.1229V42.1227V42.1225V42.1223V42.1222V42.122V42.1218V42.1216V42.1214V42.1212V42.1211V42.1209V42.1207V42.1205C104.128 41.8062 104.126 41.4919 104.126 41.1773C104.14 40.6545 104.142 40.1307 104.144 39.6065V39.6057V39.6055V39.6053V39.605V39.6048V39.6046V39.6043V39.6041V39.6039V39.6036V39.6034V39.6032V39.6029V39.6027V39.6025V39.6022V39.602V39.6018V39.6015V39.6013V39.601V39.6008C104.146 39.1186 104.148 38.636 104.159 38.1535ZM40.326 35.8006C40.4785 35.8213 40.633 35.8213 40.7855 35.8006C41.1957 35.7481 41.3138 35.9122 41.2957 36.3175C41.2771 36.9509 41.2808 37.591 41.2845 38.2306V38.2307V38.2308V38.2309V38.2311V38.2312V38.2313V38.2314V38.2315V38.2316V38.2317V38.2319V38.232V38.2321V38.2322V38.2323V38.2324V38.2325V38.2327V38.2328V38.2332V38.2334V38.2337V38.2339V38.2341V38.2343V38.2345V38.2347V38.235V38.2352V38.2354V38.2356V38.2358V38.236V38.2363V38.2365V38.2367V38.2369V38.2371V38.2374C41.286 38.4967 41.2875 38.7561 41.2875 39.0148C41.2875 39.3004 41.2895 39.5859 41.2915 39.8712C41.2956 40.4414 41.2996 41.0112 41.2875 41.5809C41.2769 42.4069 40.943 43.1958 40.3575 43.7786C39.7721 44.3614 38.9816 44.6916 38.1555 44.6984C37.3294 44.7053 36.5335 44.3883 35.9384 43.8153C35.3433 43.2424 34.9964 42.4591 34.972 41.6334C34.9472 40.5594 34.95 39.4848 34.9528 38.41V38.4099V38.4098V38.4098V38.4097V38.4096V38.4095V38.4095V38.4094V38.4093V38.4093V38.4092V38.4091V38.409V38.409V38.4089V38.4088V38.4087V38.4087V38.4086V38.4085C34.9547 37.7072 34.9565 37.0058 34.9507 36.3043C34.9474 35.9516 35.0344 35.7563 35.4249 35.8006C35.5774 35.8202 35.7318 35.8202 35.8843 35.8006C36.4176 35.7235 36.5981 35.8925 36.5817 36.4684C36.5492 37.5967 36.556 38.7258 36.5629 39.8551V39.8552V39.8554V39.8555V39.8556V39.8558V39.8559V39.856V39.8561V39.8563V39.8564V39.8565V39.8566V39.8568V39.8569V39.857V39.8571V39.8573V39.8574V39.8575V39.8576C36.5657 40.3287 36.5685 40.7998 36.5685 41.2708C36.542 41.4942 36.5623 41.7206 36.6284 41.9356C36.6944 42.1506 36.8047 42.3495 36.952 42.5194C37.0994 42.6893 37.2807 42.8266 37.4842 42.9223C37.6877 43.0181 37.909 43.0703 38.1339 43.0756C38.3586 43.0713 38.5799 43.0196 38.7833 42.924C38.9866 42.8283 39.1676 42.6908 39.3142 42.5205C39.4608 42.3502 39.5699 42.1508 39.6343 41.9355C39.6986 41.7202 39.7169 41.4937 39.6877 41.2708C39.6877 40.7299 39.6914 40.1889 39.695 39.6478V39.6474C39.7023 38.5653 39.7096 37.4833 39.6877 36.4028C39.6697 35.8827 39.8551 35.735 40.326 35.8006ZM84.7695 40.8098C84.4394 40.6916 84.1017 40.5957 83.7588 40.5227C83.0687 40.3866 82.3981 40.1662 81.7619 39.8664C81.4338 39.7023 81.2697 39.4431 81.6832 39.1789C82.0966 38.9148 83.301 38.9197 83.557 39.3184C83.9135 39.8753 84.3825 39.8657 84.8641 39.8559C84.9898 39.8533 85.1164 39.8507 85.2421 39.8582C85.7606 39.8877 85.7639 39.6777 85.5981 39.2675C85.3574 38.7069 84.9356 38.2433 84.4001 37.9509C83.8646 37.6584 83.2465 37.5541 82.6447 37.6547C81.8335 37.5745 81.02 37.7831 80.3475 38.2437C80.1161 38.4021 79.9281 38.616 79.8006 38.8658C79.6731 39.1156 79.6103 39.3933 79.6178 39.6737C79.6253 39.954 79.7029 40.228 79.8435 40.4706C79.9842 40.7132 80.1834 40.9167 80.423 41.0625C81.0049 41.4134 81.6344 41.6786 82.2919 41.85C82.7382 41.9616 83.1828 42.0847 83.616 42.2356C83.7139 42.2582 83.8016 42.3124 83.8657 42.3898C83.9297 42.4672 83.9665 42.5635 83.9704 42.6639C83.9655 42.7742 83.9271 42.8804 83.8603 42.9684C83.7934 43.0563 83.7013 43.1218 83.5963 43.1561C83.2026 43.3441 82.7529 43.3783 82.3353 43.252C81.9176 43.1258 81.5622 42.8482 81.3386 42.4735C81.331 42.4613 81.3237 42.4492 81.3166 42.4373C81.2681 42.3564 81.225 42.2845 81.122 42.2487C80.5452 42.1926 79.9633 42.2236 79.3958 42.3406C79.4532 42.8898 79.683 43.4067 80.0522 43.8173C80.0957 43.8668 80.1434 43.9123 80.1949 43.9535C80.9633 44.4415 81.8569 44.6959 82.7672 44.6857C83.6775 44.6755 84.5652 44.4012 85.3225 43.896C85.5703 43.6938 85.7595 43.4291 85.8706 43.1292C85.9816 42.8292 86.0105 42.5051 85.9541 42.1903C85.8977 41.8754 85.7581 41.5814 85.5498 41.3387C85.3415 41.096 85.0721 40.9134 84.7695 40.8098ZM65.0707 39.1325C65.4285 38.5743 65.9504 38.1406 66.5646 37.8909C67.2109 37.6418 67.9156 37.5858 68.5932 37.7297C69.2707 37.8736 69.8919 38.2112 70.3811 38.7014C70.9213 39.4011 71.203 40.2659 71.1786 41.1494C71.2016 41.4858 71.0129 41.5432 70.7274 41.5432H68.6878C68.469 41.5432 68.2503 41.5453 68.0315 41.5475C67.5939 41.5519 67.1564 41.5563 66.7188 41.5432C66.3054 41.53 66.2233 41.722 66.3185 42.0698C66.3682 42.353 66.4973 42.6162 66.6908 42.8288C66.8842 43.0414 67.1341 43.1947 67.4113 43.2709C67.7241 43.3805 68.0617 43.3991 68.3847 43.3245C68.7077 43.2498 69.0029 43.085 69.2359 42.8492C69.4728 42.6759 69.7423 42.5523 70.0282 42.4858C70.3141 42.4192 70.6105 42.4111 70.8997 42.462C71.1308 42.5606 71.0687 42.7134 71.012 42.8528L71.0021 42.8774L70.9932 42.9001C70.8861 43.2121 70.716 43.4987 70.4932 43.7421C70.2705 43.9854 70 44.1802 69.6986 44.3144C68.6872 44.7738 67.535 44.8139 66.4941 44.4259C65.8442 44.1441 65.3041 43.6578 64.9561 43.0409C64.6081 42.4239 64.4711 41.7102 64.5661 41.0083C64.5366 40.3459 64.7128 39.6907 65.0707 39.1325ZM68.1808 40.4273C68.4433 40.4255 68.7059 40.4236 68.9684 40.4291H68.9668C69.3491 40.4373 69.4114 40.265 69.2982 39.9467C69.2272 39.7027 69.0799 39.4878 68.878 39.3334C68.6761 39.179 68.43 39.0932 68.1759 39.0886C67.8764 39.0171 67.5625 39.0351 67.2731 39.1404C66.9837 39.2457 66.7317 39.4336 66.5482 39.6809C66.5368 39.6984 66.525 39.7161 66.513 39.7341C66.4023 39.9002 66.2774 40.0877 66.353 40.2831C66.4283 40.4793 66.5962 40.4592 66.7592 40.4396C66.8197 40.4323 66.8796 40.4251 66.9338 40.4291C67.1231 40.44 67.3131 40.4364 67.5029 40.4327L67.5031 40.4327C67.5978 40.4309 67.6925 40.4291 67.787 40.4291C67.9183 40.4291 68.0495 40.4282 68.1808 40.4273ZM13.5348 37.5087C12.7735 37.3599 11.9841 37.4946 11.3153 37.8875C10.6464 38.2803 10.1444 38.9042 9.90369 39.6416C9.57206 40.4862 9.5485 41.4205 9.83715 42.2807C10.1258 43.1409 10.7082 43.872 11.4822 44.3456L11.5429 44.3702C12.0613 44.6177 12.6366 44.7218 13.2089 44.6716C13.7812 44.6214 14.3295 44.4187 14.7969 44.0847C15.2643 43.7507 15.6336 43.2975 15.8665 42.7723C16.0993 42.2472 16.1871 41.6692 16.1208 41.0986C16.2121 40.286 15.998 39.4685 15.5201 38.805C15.0421 38.1415 14.3345 37.6795 13.5348 37.5087ZM13.8991 42.7377C13.6716 42.9082 13.4029 43.0151 13.1204 43.0475C12.838 43.0798 12.552 43.0363 12.2919 42.9216C12.0318 42.8068 11.8069 42.6249 11.6404 42.3945C11.4739 42.1641 11.3717 41.8935 11.3443 41.6105C11.3296 41.3037 11.323 40.9952 11.3361 40.69C11.3308 40.2684 11.4917 39.8615 11.784 39.5576C12.0764 39.2536 12.4766 39.0769 12.8982 39.0657C13.1132 39.0571 13.3276 39.0936 13.5276 39.1729C13.7276 39.2523 13.9088 39.3727 14.0594 39.5263C14.21 39.68 14.3267 39.8636 14.4019 40.0652C14.4772 40.2667 14.5094 40.4818 14.4963 40.6966V41.0133C14.5629 41.3281 14.5425 41.6551 14.4373 41.9592C14.332 42.2633 14.146 42.5313 13.8991 42.7377ZM49.5347 40.9099V42.4883C49.5347 42.6379 49.5335 42.7875 49.5322 42.9369C49.5288 43.3575 49.5253 43.777 49.5495 44.1947C49.5643 44.5704 49.4297 44.7262 49.0572 44.6869C48.9046 44.6694 48.7505 44.6694 48.5978 44.6869C48.1039 44.7492 47.9021 44.5917 47.9284 44.0437C47.961 43.2598 47.9489 42.4759 47.9369 41.692C47.9338 41.4915 47.9307 41.2909 47.9284 41.0904C47.9526 40.866 47.9305 40.6389 47.8635 40.4234C47.7965 40.2078 47.686 40.0083 47.5388 39.8372C47.3917 39.666 47.2109 39.5269 47.0079 39.4283C46.8048 39.3298 46.5836 39.2739 46.3581 39.2642C46.1344 39.2805 45.916 39.3406 45.7156 39.4413C45.5151 39.5419 45.3365 39.6811 45.1899 39.8509C45.0433 40.0207 44.9316 40.2176 44.8612 40.4306C44.7908 40.6436 44.7631 40.8683 44.7796 41.092C44.7785 41.3108 44.7765 41.5295 44.7744 41.7483C44.7672 42.514 44.76 43.2797 44.7944 44.0453C44.819 44.5868 44.6123 44.7541 44.12 44.6852C43.9674 44.6669 43.8132 44.6669 43.6606 44.6852C43.2537 44.7295 43.1454 44.5458 43.1454 44.152C43.1558 43.6231 43.1522 43.0927 43.1486 42.5615V42.5614V42.5612V42.561V42.5608V42.5606V42.5605V42.5603V42.5601V42.5599V42.5598V42.5596V42.5594V42.5592V42.5591V42.5589V42.5587C43.1448 41.9966 43.1409 41.4335 43.1536 40.8705C43.1741 40.0171 43.5264 39.2052 44.1357 38.6072C44.745 38.0092 45.5634 37.6723 46.4172 37.6678C47.2575 37.6935 48.0543 38.0472 48.6371 38.6532C49.2198 39.2592 49.542 40.0693 49.5347 40.9099ZM23.9488 37.6694C23.7739 37.6914 23.597 37.6914 23.4221 37.6694C22.9183 37.589 22.7756 37.804 22.792 38.2913C22.8248 39.3446 22.815 40.3996 22.8035 41.453C22.8051 41.8736 22.6437 42.2786 22.353 42.5827C22.0623 42.8868 21.6651 43.0665 21.2447 43.0839C21.03 43.0891 20.8165 43.05 20.6176 42.9687C20.4187 42.8875 20.2388 42.7661 20.0892 42.612C19.9396 42.4579 19.8234 42.2745 19.7481 42.0733C19.6728 41.8722 19.6399 41.6576 19.6515 41.4431C19.6438 40.8423 19.6464 40.24 19.6489 39.6396V39.6394V39.6392V39.6391V39.639V39.6388V39.6387V39.6386V39.6385V39.6384V39.6383V39.6382V39.6381V39.638V39.6379V39.6378V39.6376V39.6375C19.6502 39.3386 19.6515 39.0401 19.6515 38.7425C19.6503 38.5927 19.6515 38.4638 19.6526 38.353V38.3527C19.656 37.9976 19.6576 37.8278 19.5736 37.7469C19.4965 37.6728 19.3474 37.6734 19.0616 37.6747C18.9289 37.6753 18.7667 37.676 18.5685 37.6694C18.1567 37.6563 18.032 37.7941 18.0484 38.1912C18.0659 38.6002 18.0601 39.0099 18.0542 39.4199V39.42C18.0513 39.6251 18.0484 39.8302 18.0484 40.0354C18.0484 40.2189 18.0469 40.4022 18.0455 40.5853V40.5853V40.5853V40.5853V40.5853V40.5853V40.5854V40.5854V40.5854V40.5854V40.5854V40.5854V40.5855V40.5855V40.5855V40.5855C18.0426 40.9506 18.0397 41.3144 18.0484 41.6761C18.0758 42.4865 18.4192 43.254 19.0051 43.8145C19.5911 44.375 20.3732 44.684 21.184 44.6754C21.9832 44.6909 22.7585 44.4024 23.3531 43.8681C23.9477 43.3339 24.3172 42.5938 24.3869 41.7975C24.4219 41.0272 24.4188 40.2543 24.4157 39.482V39.4819V39.4818V39.4816V39.4815V39.4813V39.4811V39.481V39.4808V39.4807V39.4805V39.4803V39.4802V39.48V39.4799V39.4797V39.4795C24.4138 39.0223 24.412 38.5653 24.4181 38.1092C24.4263 37.7662 24.2835 37.6366 23.9488 37.6694ZM61.6839 37.641C61.8375 37.6129 61.9953 37.617 62.1473 37.653C62.2168 37.6592 62.2809 37.6643 62.3396 37.6691C62.6574 37.6948 62.8211 37.708 62.8707 37.7902C62.9234 37.8775 62.8474 38.0426 62.6904 38.3831L62.6526 38.4652C61.9238 40.0755 61.2066 41.6922 60.4896 43.3085L60.2144 43.9288C60.2014 43.9581 60.1886 43.9874 60.1759 44.0166C60.006 44.4074 59.8475 44.772 59.2627 44.7033C59.1463 44.69 59.0312 44.6864 58.9187 44.6829C58.4616 44.6688 58.0493 44.6561 57.7859 43.9977C57.1997 42.5179 56.5329 41.0706 55.8661 39.6237L55.8661 39.6236L55.866 39.6235C55.6613 39.1792 55.4566 38.7349 55.2542 38.2896C55.0359 37.8105 55.1081 37.6481 55.6742 37.658L55.7721 37.6596C56.8894 37.6784 56.9126 37.6788 57.361 38.7605C57.666 39.4847 57.9509 40.2151 58.2358 40.9459L58.2364 40.9473L58.237 40.9488L58.2376 40.9503C58.3659 41.2793 58.4942 41.6084 58.6244 41.937C58.6719 42.1942 58.8084 42.4266 59.01 42.5933C59.4275 41.8548 59.781 41.0819 60.0667 40.2831C60.339 39.7329 60.5742 39.165 60.7706 38.5833C60.7939 38.4289 60.8489 38.281 60.9322 38.149C61.0156 38.0169 61.1254 37.9036 61.2548 37.8161C61.3842 37.7287 61.5303 37.6691 61.6839 37.641ZM7.79874 36.7621C7.79874 36.2876 7.79874 36.0532 7.68158 35.9338C7.56724 35.8174 7.34133 35.8104 6.89496 35.7966L6.81425 35.7941C6.32201 35.7793 6.18089 35.9007 6.1891 36.4077C6.21535 38.0747 6.19894 39.7434 6.16777 41.4103C6.18667 41.6248 6.16024 41.8409 6.09021 42.0445C6.02018 42.2482 5.90811 42.4348 5.76127 42.5923C5.61443 42.7498 5.43611 42.8747 5.23788 42.9588C5.03965 43.0429 4.82594 43.0844 4.61063 43.0806C4.39645 43.0757 4.18553 43.0271 3.99082 42.9378C3.79611 42.8484 3.62171 42.7202 3.47835 42.561C3.33498 42.4019 3.22567 42.2151 3.15712 42.0121C3.08858 41.8091 3.06225 41.5943 3.07974 41.3808C3.08959 40.8705 2.95012 40.6441 2.42341 40.7147C2.24822 40.7308 2.07191 40.7308 1.89671 40.7147C1.60465 40.6999 1.47994 40.8 1.45041 41.1216C1.40319 41.5532 1.444 41.9899 1.57038 42.4053C1.69676 42.8207 1.90609 43.2062 2.1857 43.5384C2.4653 43.8706 2.80939 44.1426 3.19714 44.338C3.58489 44.5335 4.00825 44.6482 4.44163 44.6754C4.87541 44.7095 5.31154 44.6522 5.72176 44.5071C6.13198 44.362 6.50716 44.1324 6.82301 43.8331C7.13885 43.5338 7.38833 43.1716 7.55528 42.7697C7.72223 42.3679 7.80294 41.9355 7.79218 41.5006C7.79765 40.9593 7.79583 40.418 7.794 39.8772V39.8771V39.8771V39.877V39.8769V39.8769V39.8768V39.8768V39.8767V39.8766V39.8766V39.8765V39.8764V39.8764C7.79309 39.606 7.79218 39.3358 7.79218 39.0657C7.79656 38.2979 7.79874 37.53 7.79874 36.7621ZM30.4518 35.8269C30.6307 35.8498 30.739 35.9204 30.739 36.1124V36.1124C30.739 36.178 30.739 36.2436 30.7439 36.3109C30.7899 37.402 30.7899 37.402 29.7233 37.4315C29.3488 37.3864 28.9705 37.476 28.656 37.6843C28.3415 37.8926 28.1115 38.2061 28.007 38.5685C27.8758 38.9984 27.9332 39.2544 28.4648 39.2117C28.654 39.2008 28.8439 39.2044 29.0341 39.2081C29.1292 39.2099 29.2244 39.2117 29.3197 39.2117C30.3485 39.2117 30.5486 39.4677 30.3485 40.5243C30.296 40.8114 30.1368 40.8114 29.9317 40.8114C29.4942 40.8305 29.0561 40.8261 28.6191 40.7983C28.0464 40.7327 27.9069 40.9722 27.9299 41.5022C27.9495 41.9548 27.9456 42.4091 27.9418 42.8641C27.9382 43.285 27.9346 43.7064 27.9496 44.1273C27.9644 44.5605 27.82 44.7 27.3934 44.7L27.3459 44.7005H27.3459C26.8288 44.706 26.5671 44.7088 26.4347 44.5794C26.2989 44.4467 26.2989 44.1751 26.2989 43.6253V42.5736V41.5219C26.2989 41.2525 26.2975 40.9829 26.296 40.7132V40.7131V40.7129V40.7127V40.7125V40.7123V40.7122V40.712V40.7118V40.7116V40.7115V40.7113V40.7111V40.711V40.7109V40.7109V40.7108V40.7107V40.7106V40.7105V40.7105V40.7104V40.7103V40.7102V40.7101C26.2931 40.1696 26.2902 39.6288 26.2989 39.0887C26.2985 38.58 26.4138 38.0778 26.6361 37.6203C26.8583 37.1627 27.1817 36.7616 27.5817 36.4474C27.9818 36.1332 28.4481 35.914 28.9453 35.8065C29.4425 35.699 29.9577 35.706 30.4518 35.8269ZM95.1899 43.0888C94.9482 43.1233 94.7019 43.1013 94.4703 43.0244C94.2386 42.9475 94.028 42.818 93.8549 42.6459C93.6819 42.4738 93.5511 42.2639 93.473 42.0327C93.3948 41.8015 93.3714 41.5553 93.4046 41.3135V40.7212C93.4046 39.3381 93.4046 39.3381 94.7748 39.2759L94.7797 39.2757C94.8093 39.2757 94.8397 39.2776 94.8702 39.2795C95.0253 39.2892 95.1825 39.2991 95.2539 39.0591C95.5246 38.142 95.2046 37.6727 94.2808 37.6711C94.2371 37.6673 94.1933 37.6673 94.1496 37.6711C93.5523 37.7777 93.3784 37.5415 93.3899 36.936C93.3937 36.7356 93.4028 36.5708 93.4104 36.4354L93.4104 36.4352V36.4351C93.427 36.1375 93.4357 35.9816 93.3621 35.8992C93.2811 35.8086 93.1006 35.807 92.7215 35.8036C92.5912 35.8024 92.4374 35.801 92.2561 35.7957C91.8295 35.7826 91.7392 35.945 91.7507 36.3306C91.7671 36.9006 91.7616 37.4712 91.7562 38.0416C91.7534 38.3268 91.7507 38.6118 91.7507 38.8967H91.7688C91.7688 39.1957 91.7666 39.4954 91.7644 39.7952V39.7953V39.7955V39.7957V39.7959V39.7961V39.7963V39.7964V39.7966V39.7968V39.797V39.7972V39.7978C91.76 40.3986 91.7556 40.9997 91.7688 41.5957C91.7806 42.0586 91.8925 42.5135 92.097 42.929C92.3015 43.3445 92.5936 43.7107 92.9532 44.0025C93.3128 44.2942 93.7314 44.5046 94.1801 44.619C94.6288 44.7335 95.0971 44.7494 95.5525 44.6655C95.5647 44.6631 95.5782 44.6606 95.5923 44.658C95.6729 44.6432 95.7743 44.6245 95.7855 44.5868C95.9077 44.1434 95.9178 43.6765 95.815 43.2282C95.7726 43.0017 95.571 43.0354 95.3806 43.0673C95.3131 43.0786 95.247 43.0896 95.1899 43.0888ZM52.6293 24.081C52.6249 25.1637 52.6205 26.2461 52.6336 27.3279C52.6402 27.7824 52.5598 28.0071 52.0331 27.9891C51.8892 27.9836 51.7655 27.9813 51.6592 27.9794C51.3316 27.9733 51.1691 27.9703 51.0902 27.8875C51.0126 27.8061 51.0159 27.6475 51.0225 27.3329C51.0247 27.2273 51.0273 27.1041 51.0273 26.9604C51.0251 25.9494 51.0272 24.9384 51.0292 23.9274C51.0334 21.821 51.0375 19.7146 51.0043 17.6082C50.9947 16.9494 51.304 16.9567 51.6627 16.9651C51.7346 16.9668 51.8084 16.9686 51.8821 16.965L51.9032 16.964C52.3346 16.943 52.6727 16.9265 52.6517 17.5852C52.613 18.7441 52.6204 19.9039 52.6277 21.0639C52.6307 21.5281 52.6336 21.9923 52.6336 22.4566C52.6336 22.9972 52.6315 23.5378 52.6293 24.0784L52.6293 24.081ZM77.6069 37.9943C77.6069 37.7449 77.4871 37.6662 77.2476 37.6416C76.4013 37.5119 75.538 37.7199 74.8438 38.2208C74.1495 38.7217 73.6798 39.4753 73.536 40.3192C73.4763 41.0183 73.4703 41.721 73.518 42.421H73.4737V43.6712C73.4759 43.8256 73.4743 43.9565 73.4729 44.0674V44.068V44.0685C73.4693 44.3635 73.4674 44.5173 73.5433 44.5982C73.6259 44.6863 73.8008 44.6878 74.1661 44.691C74.276 44.6919 74.4031 44.693 74.5501 44.6967C74.9882 44.7082 75.1211 44.5621 75.1079 44.1306C75.096 43.729 75.1015 43.3267 75.1069 42.9247V42.9245V42.9242V42.924V42.9237V42.9234V42.9232V42.9229V42.9227V42.9224C75.1142 42.381 75.1214 41.8402 75.0866 41.302C75.0372 41.0249 75.0542 40.7401 75.1364 40.4709C75.2186 40.2018 75.3636 39.9559 75.5594 39.7538C75.7551 39.5516 75.9962 39.3988 76.2626 39.308C76.529 39.2172 76.8132 39.1909 77.0917 39.2314C77.4986 39.3036 77.6479 39.1133 77.6135 38.7179C77.5984 38.477 77.5962 38.2354 77.6069 37.9943ZM52.1137 37.6727C52.244 37.6952 52.3772 37.6952 52.5075 37.6727C53.0359 37.5825 53.131 37.8335 53.1212 38.306C53.0979 38.989 53.1027 39.6729 53.1074 40.3569V40.357V40.3571V40.3573V40.3574V40.3575V40.3576V40.3577V40.3579L53.1074 40.3594C53.1094 40.6408 53.1113 40.9222 53.1113 41.2036C53.1113 41.488 53.1097 41.7716 53.1081 42.0546V42.0549V42.0552V42.0554V42.0556V42.0557V42.0558V42.0559V42.056V42.0561V42.0562V42.0563C53.1041 42.7622 53.1001 43.4645 53.1212 44.1668C53.1343 44.5851 52.9899 44.6787 52.5961 44.6787C52.4088 44.6752 52.2521 44.6763 52.1212 44.6772C51.7819 44.6796 51.6152 44.6808 51.535 44.5981C51.4575 44.5181 51.4609 44.3598 51.4676 44.0484V44.0483V44.0481V44.0479V44.0477V44.0475C51.4703 43.9211 51.4736 43.7694 51.4722 43.5876C51.4658 42.8261 51.4674 42.0649 51.469 41.3039V41.3038V41.3037V41.3036V41.3035V41.3034V41.3033V41.3032V41.3031C51.4711 40.3082 51.4732 39.3137 51.4574 38.3192C51.4426 37.804 51.5821 37.5776 52.1137 37.6727ZM89.518 38.1453C89.518 37.7662 89.3769 37.6317 89.0159 37.6694C88.8415 37.6898 88.6653 37.6898 88.4908 37.6694C88.0347 37.6087 87.8788 37.7843 87.8935 38.2503C87.9157 38.9504 87.9113 39.6506 87.907 40.3507C87.9052 40.635 87.9034 40.9193 87.9034 41.2036C87.9034 41.4844 87.9054 41.7652 87.9073 42.046C87.9121 42.7283 87.9168 43.4106 87.8935 44.0929C87.8771 44.5589 88.0396 44.7328 88.4892 44.6803C88.6632 44.6578 88.8391 44.6523 89.0142 44.6639C89.3687 44.6918 89.5163 44.5753 89.5065 44.1864C89.4977 42.1738 89.5016 40.1601 89.518 38.1453ZM58.2427 18.5541C58.079 18.362 57.9953 18.1145 58.0089 17.8625C57.9966 17.732 58.0116 17.6004 58.0531 17.476C58.0946 17.3517 58.1616 17.2373 58.2497 17.1403C58.3379 17.0434 58.4454 16.9658 58.5653 16.9128C58.6851 16.8597 58.8148 16.8322 58.9458 16.8321C59.0767 16.8381 59.205 16.8704 59.3231 16.927C59.4412 16.9837 59.5466 17.0635 59.6332 17.1619C59.7197 17.2602 59.7855 17.3749 59.8267 17.4993C59.8679 17.6236 59.8836 17.7549 59.8729 17.8855C59.8743 18.1493 59.7717 18.403 59.5875 18.5918C59.4033 18.7806 59.1522 18.8894 58.8884 18.8945C58.6375 18.868 58.4063 18.7461 58.2427 18.5541ZM39.6239 29.8907C39.6171 29.704 39.5554 29.5235 39.4466 29.3717C39.3377 29.2198 39.1865 29.1035 39.0119 29.0371C38.8372 28.9708 38.6469 28.9574 38.4647 28.9987C38.2825 29.0399 38.1165 29.134 37.9875 29.2691C37.8584 29.4042 37.7721 29.5744 37.7393 29.7583C37.7064 29.9422 37.7286 30.1317 37.8029 30.3031C37.8772 30.4745 38.0004 30.6201 38.157 30.7219C38.3137 30.8237 38.4969 30.877 38.6837 30.8751C38.9371 30.8637 39.1763 30.755 39.3514 30.5716C39.5266 30.3882 39.6242 30.1443 39.6239 29.8907ZM99.2116 29.4807C99.2538 29.6039 99.27 29.7346 99.2591 29.8645C99.27 29.9943 99.2538 30.125 99.2116 30.2483C99.1693 30.3715 99.102 30.4847 99.0138 30.5806C98.9256 30.6765 98.8184 30.753 98.6991 30.8054C98.5797 30.8578 98.4509 30.8848 98.3206 30.8848C98.1902 30.8848 98.0614 30.8578 97.942 30.8054C97.8227 30.753 97.7156 30.6765 97.6274 30.5806C97.5392 30.4847 97.4718 30.3715 97.4296 30.2483C97.3874 30.125 97.3711 29.9943 97.382 29.8645C97.3711 29.7346 97.3874 29.6039 97.4296 29.4807C97.4718 29.3574 97.5392 29.2443 97.6274 29.1484C97.7156 29.0525 97.8227 28.9759 97.942 28.9235C98.0614 28.8712 98.1902 28.8441 98.3206 28.8441C98.4509 28.8441 98.5797 28.8712 98.6991 28.9235C98.8184 28.9759 98.9256 29.0525 99.0138 29.1484C99.102 29.2443 99.1693 29.3574 99.2116 29.4807ZM52.2218 34.7998C52.0973 34.8016 51.9744 34.8283 51.8604 34.8782C51.7463 34.9281 51.6434 35.0003 51.5576 35.0905C51.4718 35.1808 51.4049 35.2872 51.3608 35.4036C51.3167 35.5201 51.2963 35.6441 51.3007 35.7686C51.3052 35.893 51.3345 36.0153 51.3869 36.1282C51.4392 36.2412 51.5136 36.3425 51.6057 36.4264C51.6977 36.5102 51.8056 36.5748 51.923 36.6164C52.0403 36.658 52.1648 36.6757 52.2891 36.6686C52.5333 36.6546 52.7622 36.5455 52.9269 36.3646C53.0916 36.1838 53.1789 35.9457 53.1701 35.7013C53.1613 35.4569 53.0571 35.2256 52.8798 35.0571C52.7026 34.8886 52.4664 34.7963 52.2218 34.7998ZM88.0363 35.0876C88.2082 34.9169 88.4371 34.8156 88.6791 34.8031C88.8025 34.805 88.9243 34.8312 89.0375 34.8802C89.1507 34.9292 89.2532 35 89.339 35.0886C89.4249 35.1772 89.4925 35.2819 89.5379 35.3966C89.5833 35.5113 89.6057 35.6338 89.6037 35.7572C89.6018 35.8805 89.5756 36.0023 89.5266 36.1155C89.4776 36.2287 89.4067 36.3312 89.3181 36.417C89.2295 36.5029 89.1249 36.5704 89.0102 36.6159C88.8955 36.6613 88.773 36.6837 88.6496 36.6817C88.4064 36.6668 88.1779 36.56 88.0104 36.3831C87.8428 36.2061 87.7487 35.9721 87.7471 35.7284C87.7613 35.4865 87.8643 35.2584 88.0363 35.0876Z" fill="#80519F"/>
<path id="Union_2" fill-rule="evenodd" clip-rule="evenodd" d="M113.175 35.3824L113.111 35.2954C112.553 34.6598 112.223 33.8563 112.173 33.0121C112.123 32.1678 112.356 31.331 112.835 30.6341V30.598L112.868 30.5832C113.138 30.0154 113.543 29.5229 114.049 29.1492C115.508 27.8678 117.216 26.9005 119.065 26.3075C119.069 26.2988 119.074 26.2911 119.081 26.2847C119.088 26.2784 119.097 26.2736 119.106 26.2707C119.115 26.2677 119.124 26.2667 119.134 26.2677C119.143 26.2687 119.152 26.2716 119.16 26.2763C119.566 26.0252 120.023 25.8666 120.498 25.812C120.502 25.8052 120.508 25.7993 120.515 25.7948C120.522 25.7903 120.53 25.7872 120.538 25.7857C120.546 25.7841 120.554 25.7842 120.562 25.7859C120.57 25.7876 120.578 25.7909 120.585 25.7956C120.772 25.6712 120.99 25.6008 121.215 25.5921L121.334 25.5692C123.061 24.9744 124.842 24.5475 126.651 24.2943C130.124 23.7384 133.634 23.4417 137.152 23.4067C137.729 23.4017 137.912 23.5576 137.874 24.1319C137.821 24.9014 137.856 24.9194 138.655 24.944C139.075 24.9565 139.491 25.0035 139.906 25.0504C140.475 25.1146 141.042 25.1787 141.62 25.154C142.145 25.1245 142.02 24.9276 141.817 24.6618C141.597 24.3734 141.374 24.0875 141.151 23.8011C141.061 23.6851 140.97 23.569 140.88 23.4526C140.67 23.2334 140.463 23.0117 140.255 22.7899C139.632 22.1233 139.007 21.4561 138.317 20.8553C138.293 20.8352 138.271 20.8104 138.248 20.7854C138.177 20.7064 138.103 20.6243 137.972 20.6716C137.836 20.7208 137.848 20.8415 137.86 20.9523C137.863 20.9819 137.866 21.0108 137.866 21.0375V22.4616C137.673 22.3023 137.488 22.1498 137.309 22.0017C136.854 21.6266 136.435 21.2804 136.02 20.9275C133.51 18.7594 130.765 16.8794 127.837 15.3228C126.523 14.6114 125.108 14.1062 123.641 13.8248C123.187 13.678 122.703 13.6437 122.233 13.7248C121.762 13.8058 121.318 13.9999 120.938 14.2903C120.559 14.5807 120.256 14.9587 120.055 15.3921C119.854 15.8254 119.761 16.301 119.784 16.7781C119.67 18.1158 119.726 19.4625 119.948 20.7864C120.132 21.5885 120.374 22.3759 120.673 23.1425C120.429 23.2366 120.377 23.095 120.339 22.989C120.334 22.9767 120.33 22.9648 120.325 22.9538C119.246 20.7623 118.652 18.3637 118.584 15.9217C118.588 15.0205 118.86 14.1408 119.365 13.3949C119.718 12.8968 120.189 12.4943 120.736 12.2239C121.283 11.9535 121.889 11.8236 122.499 11.8461C124.316 11.9008 126.095 12.3831 127.691 13.2538C130.786 14.7579 133.657 16.6839 136.223 18.9767C136.448 19.1749 136.686 19.3579 136.923 19.5408C137.107 19.682 137.29 19.8231 137.467 19.971C137.69 20.1515 137.795 20.1072 137.795 19.8397V18.765V4.62194C137.795 3.81798 137.667 3.75071 136.962 4.14613C136.78 4.24636 136.621 4.38169 136.492 4.54423C136.364 4.70677 136.269 4.89326 136.213 5.09283C135.749 6.99812 135.055 8.83994 134.146 10.5778C133.633 11.7437 133.312 12.9848 133.196 14.253C133.185 14.2979 133.179 14.3449 133.173 14.3925C133.151 14.5554 133.129 14.7266 132.917 14.8535C132.759 14.3033 132.714 13.7267 132.786 13.1587C132.901 12.1307 133.135 11.1193 133.481 10.1446C133.593 9.76891 133.686 9.3817 133.778 8.99613C133.806 8.69631 133.927 8.41257 134.123 8.18397C134.652 7.65878 134.972 6.95885 135.022 6.21509C135.239 4.73023 135.87 3.60305 137.511 3.37827C137.785 3.34053 137.797 3.16989 137.797 2.95332C137.795 2.70178 137.799 2.4497 137.803 2.19756C137.811 1.69314 137.819 1.18848 137.782 0.687466C137.739 0.111569 137.953 0 138.483 0C145.963 0.00875057 153.442 0.0131265 160.922 0.0131265H173.215C173.601 0.0131265 173.795 0.0131264 173.892 0.110131C173.992 0.208496 173.992 0.406605 173.992 0.805599V63.1665C173.992 63.6139 174.029 63.8184 173.945 63.9113C173.863 64.0011 173.667 63.9869 173.212 63.9869C161.635 63.9814 150.057 63.9858 138.479 64C137.949 64 137.743 63.8819 137.785 63.3093C137.825 62.7891 137.815 62.2659 137.805 61.7422C137.801 61.5093 137.797 61.2763 137.797 61.0434C137.797 61.0249 137.797 61.006 137.798 60.9871C137.801 60.8302 137.805 60.6688 137.56 60.6513C136.829 60.5524 136.131 60.2803 135.526 59.8577C134.921 59.4351 134.425 58.8741 134.08 58.2213C133.087 56.7141 132.323 55.0681 131.813 53.3369C131.77 53.2625 131.746 53.1787 131.743 53.0928C131.74 53.007 131.758 52.9218 131.796 52.8447C131.977 52.9291 132.036 53.0929 132.092 53.2494C132.106 53.2876 132.119 53.3254 132.134 53.3615C132.836 55.0622 133.876 56.6032 135.189 57.8916C135.751 58.4625 136.471 58.8503 137.257 59.004C137.628 59.068 137.803 59.0073 137.803 58.5757C137.785 54.2247 137.785 49.8736 137.785 45.5225V45.5073C137.785 45.4806 137.789 45.4516 137.792 45.422C137.804 45.313 137.818 45.1951 137.672 45.1513C137.574 45.1229 137.522 45.1894 137.47 45.2559C137.447 45.2856 137.424 45.3154 137.396 45.3367C137.318 45.3967 137.25 45.4693 137.183 45.5418C137.062 45.6718 136.941 45.8016 136.76 45.8584L135.257 47.1005L135.124 47.2071L134.988 47.3105C131.981 49.9212 128.486 51.9103 124.706 53.163C124.034 53.4195 123.315 53.5308 122.597 53.4895C121.878 53.4482 121.177 53.2553 120.539 52.9234C120.068 52.6391 119.671 52.2482 119.379 51.7822C119.088 51.3163 118.91 50.7882 118.86 50.2408C118.695 48.3707 118.976 46.488 119.68 44.7477C120.157 43.3774 120.739 42.0466 121.423 40.7672C121.617 40.38 121.602 40.2242 121.124 40.0798C118.837 39.4597 116.684 38.4235 114.773 37.0231C114.715 36.972 114.66 36.9172 114.609 36.859C114.081 36.5693 113.647 36.1357 113.357 35.6088C113.31 35.5892 113.269 35.5582 113.237 35.5186C113.205 35.4791 113.184 35.4323 113.175 35.3824ZM135.228 47.0086L135.199 47.043C135.235 47.001 135.271 46.9591 135.306 46.9175C135.38 46.8309 135.452 46.7455 135.527 46.6624C135.423 46.7744 135.325 46.8919 135.228 47.0086ZM113.439 32.4783C113.434 32.461 113.432 32.4435 113.431 32.4258L113.429 32.4176C113.43 32.4381 113.433 32.4584 113.439 32.4783ZM141.61 20.56C141.777 20.0077 141.812 19.4236 141.712 18.8553L141.708 18.8454C141.579 18.3286 141.547 17.7924 141.613 17.2638C141.735 16.1307 141.726 16.13 140.631 16.035L140.629 16.0349C139.726 15.9545 139.593 16.0677 139.657 16.9389C139.855 18.0297 139.92 19.1402 139.853 20.2466C139.734 20.9669 139.876 21.0736 140.625 21.0014C140.723 20.978 140.833 20.9757 140.942 20.9733C141.234 20.967 141.528 20.9607 141.61 20.56ZM142.399 33.6317C142.542 33.1125 142.573 32.5689 142.489 32.0369L142.481 32.0287C142.343 31.3885 142.323 30.7287 142.421 30.0812C142.511 29.269 142.437 29.1902 141.648 29.1722C141.469 29.1689 141.292 29.1607 141.113 29.1492C140.197 29.0934 140.082 29.2034 140.171 30.1337C140.387 31.2854 140.442 32.4615 140.335 33.6284C140.25 34.1042 140.573 34.1978 140.954 34.1535C141.046 34.1457 141.137 34.1375 141.227 34.1295C141.461 34.1086 141.688 34.0882 141.917 34.0763C142.038 34.0745 142.154 34.0281 142.243 33.9461C142.332 33.8641 142.387 33.7522 142.399 33.6317ZM137.963 40.6753C137.849 40.789 137.898 41.0683 137.869 41.7468L137.866 41.7369C137.844 42.2521 138.062 42.3227 138.479 42.2915C140.03 42.263 141.579 42.1843 143.126 42.0552C144.54 41.9371 144.542 41.9551 144.168 43.3465C144.023 44.9686 143.784 46.5809 143.451 48.1751C143.407 48.3966 143.325 48.4557 143.139 48.3113C143.025 48.2283 142.913 48.1366 142.8 48.045C142.775 48.0243 142.749 48.0037 142.724 47.9832C142.36 47.8161 142.035 47.574 141.771 47.2727C141.712 47.2648 141.656 47.2396 141.611 47.2001C141.566 47.1607 141.534 47.1089 141.518 47.0513C141.173 46.883 140.868 46.6417 140.625 46.3441H140.591L140.578 46.3129C140.521 46.3 140.469 46.2735 140.425 46.2358C140.381 46.1981 140.347 46.1502 140.325 46.0963C139.774 45.7491 139.28 45.3191 138.86 44.8215L138.67 44.6574C138.613 44.6441 138.561 44.6171 138.517 44.5787C138.473 44.5404 138.439 44.4919 138.419 44.4376C138.145 44.6489 138.175 44.9162 138.206 45.1831C138.223 45.3305 138.24 45.4778 138.205 45.6156L138.217 45.6484C138.268 45.6596 138.315 45.6834 138.354 45.7175C138.393 45.7516 138.423 45.795 138.442 45.8437C138.501 45.8508 138.558 45.8757 138.603 45.9152C138.649 45.9547 138.682 46.0069 138.698 46.0652C139.016 46.2508 139.297 46.4933 139.528 46.7805C139.547 46.7808 139.566 46.7852 139.584 46.7934C139.601 46.8017 139.617 46.8136 139.63 46.8283C139.642 46.8431 139.651 46.8604 139.657 46.879C139.662 46.8976 139.663 46.9172 139.661 46.9364L139.825 47.0644L139.864 47.089C139.925 47.0981 139.981 47.1246 140.027 47.1654C140.073 47.2062 140.106 47.2595 140.122 47.3187C141.057 48.0187 141.993 48.7171 142.931 49.4139C143.065 49.514 143.17 49.6108 143.118 49.806C142.733 51.4881 142.206 53.1346 141.544 54.7282C141.483 55.0989 141.32 55.4453 141.073 55.7291L140.957 55.9243C140.844 56.3618 140.633 56.768 140.34 57.1122C140.196 57.4569 139.971 57.7615 139.684 57.9998V57.99L139.566 58.1213C139.359 58.4876 139.022 58.7625 138.622 58.8908C137.854 59.0581 137.849 59.5553 137.871 60.1623C137.885 60.5922 138.097 60.6267 138.399 60.5299C138.683 60.4401 138.96 60.3292 139.237 60.2182C139.36 60.1689 139.483 60.1195 139.607 60.0721C139.623 59.9999 139.659 59.9556 139.738 59.9556C140.477 59.2168 141.15 58.4147 141.749 57.5585C141.944 57.0609 142.189 56.5843 142.48 56.136L143.669 53.0366L143.707 52.8086C143.76 52.6006 143.812 52.3926 143.863 52.1848C143.971 51.7516 144.078 51.3191 144.199 50.8889C144.28 50.5985 144.398 50.3458 144.757 50.674C144.976 50.8463 145.208 51.0015 145.451 51.1383L145.6 51.2712C145.701 51.2515 145.809 51.2417 145.865 51.3631C147.112 52.0588 148.412 52.6567 149.752 53.1515C150.9 53.6177 152.151 53.7733 153.378 53.6027C154.052 53.5005 154.678 53.1908 155.168 52.7165C155.659 52.2421 155.989 51.6269 156.113 50.9562C156.436 49.347 156.313 47.68 155.757 46.1357C155.249 44.2953 154.528 42.5206 153.608 40.8476C153.345 40.3899 153.493 40.2685 153.951 40.1388C156.362 39.519 158.634 38.4479 160.647 36.9821C161.753 36.2525 162.578 35.1673 162.985 33.9057C163.201 33.152 163.201 32.3531 162.986 31.5992C162.771 30.8453 162.35 30.1666 161.769 29.6398C160.732 28.5701 159.481 27.7314 158.097 27.1787C157.725 27.03 157.362 26.8476 156.997 26.6646C156.669 26.5003 156.341 26.3355 156.005 26.1943C155.795 26.0758 155.548 26.0401 155.312 26.0942C156.566 26.7911 157.768 27.5774 158.909 28.447C159.947 29.1911 160.794 30.1691 161.383 31.3019C161.763 31.9784 161.872 32.7734 161.69 33.5273C161.507 34.2812 161.046 34.938 160.399 35.366C158.738 36.6348 156.864 37.5966 154.865 38.2061C154.583 38.3015 154.295 38.3804 154.007 38.4593C153.7 38.5432 153.393 38.6271 153.094 38.7311C153.03 38.7652 152.96 38.7854 152.887 38.7902C152.815 38.7951 152.742 38.7845 152.674 38.7592C152.607 38.734 152.545 38.6945 152.493 38.6436C152.442 38.5926 152.401 38.5313 152.375 38.4637C152.206 38.182 152.038 37.8988 151.87 37.6156C151.32 36.686 150.769 35.7556 150.141 34.8754C149.785 34.3016 149.397 33.7484 148.979 33.2182C148.721 32.9229 148.749 32.7014 148.999 32.3979C151.149 29.7928 153.036 26.981 154.632 24.0039C155.943 21.7235 156.81 19.2146 157.185 16.6108C157.357 15.7046 157.23 14.7671 156.824 13.9388C156.418 13.1106 155.755 12.4362 154.933 12.0167C153.957 11.6554 152.898 11.5747 151.878 11.7837C151.306 11.8554 150.741 11.9818 150.193 12.1611C149.198 12.4908 148.23 12.8944 147.295 13.3687C147.773 13.2994 148.241 13.1904 148.71 13.0814C149.174 12.9734 149.638 12.8654 150.111 12.7961C151.405 12.54 152.745 12.6375 153.988 13.0783C154.55 13.2695 155.035 13.6353 155.374 14.122C155.712 14.6088 155.886 15.1911 155.87 15.7838C155.82 17.5794 155.38 19.3426 154.579 20.9505C153.086 24.2687 151.194 27.3923 148.944 30.2518C148.872 30.3479 148.799 30.4442 148.727 30.5405C148.333 31.064 147.94 31.5874 147.509 32.0779C147.254 32.3686 147.385 32.5452 147.541 32.757C147.547 32.7652 147.553 32.7735 147.56 32.7818C148.872 34.5161 150.04 36.3324 151.169 38.1782C151.202 38.2319 151.234 38.2861 151.266 38.3403C151.335 38.4567 151.404 38.5732 151.481 38.6852C151.696 38.9969 151.598 39.1314 151.248 39.2085C149.732 39.5498 148.204 39.8091 146.669 40.0289C146.163 40.1011 146.068 39.9239 146.201 39.4842C146.221 39.4183 146.238 39.3515 146.255 39.285C146.343 38.9394 146.428 38.605 146.892 38.4784C147.131 38.4134 147.09 38.1407 147.055 37.9134C147.051 37.8883 147.048 37.8638 147.044 37.8402C147.012 37.6023 146.944 37.3168 146.647 37.3381C146.314 37.3623 146.316 37.1825 146.319 36.9837C146.319 36.9663 146.319 36.9488 146.319 36.9312C146.322 36.6257 146.324 36.3201 146.326 36.0145C146.336 34.4726 146.346 32.9307 146.483 31.3888C146.603 30.0381 146.463 28.6771 146.071 27.3789C145.994 27.1344 145.976 26.9769 146.235 26.8489C146.353 26.7918 146.445 26.6929 146.494 26.5716C146.542 26.4502 146.544 26.3151 146.498 26.1926C146.424 25.9088 146.232 25.8267 145.95 25.8645C145.651 25.9047 145.614 25.6767 145.58 25.4732C145.578 25.4608 145.576 25.4484 145.574 25.4363C145.535 25.2036 145.493 24.9712 145.452 24.7389C145.332 24.0703 145.213 23.4024 145.146 22.729C145.095 22.1162 144.976 21.5109 144.792 20.9242C144.528 19.7011 144.329 18.465 144.194 17.2211C144.111 16.8402 144.043 16.4557 143.974 16.0712C143.928 15.8099 143.881 15.5486 143.83 15.2883C143.764 14.9471 143.766 14.6698 144.12 14.468C144.254 14.396 144.36 14.2806 144.42 14.1408C144.479 14.0009 144.489 13.8449 144.449 13.6985C144.371 13.3445 144.087 13.3314 143.819 13.3191C143.81 13.3187 143.801 13.3182 143.792 13.3178C143.454 13.303 143.346 13.1127 143.244 12.8108C142.744 11.5115 142.423 10.1504 142.289 8.76479C142.292 8.66423 142.27 8.56456 142.225 8.47438C141.82 7.84057 141.546 7.14296 141.273 6.44535C140.953 5.62962 140.633 4.8139 140.102 4.10019C139.586 3.71336 138.979 3.46435 138.34 3.37662C138.058 3.36678 137.731 3.37991 137.964 3.82783C138.122 3.79175 138.288 3.80727 138.437 3.87212C138.496 3.89442 138.557 3.91246 138.619 3.93049C138.838 3.99473 139.057 4.05889 139.157 4.31512C139.402 4.52019 139.579 4.79569 139.662 5.10432C140.393 6.73117 140.953 8.42974 141.333 10.1725C141.495 11.1322 141.744 12.0752 142.078 12.9897C142.261 13.541 142.168 13.7805 141.595 13.8576C141.055 13.9298 140.51 13.9765 139.965 14.0231C139.718 14.0442 139.471 14.0654 139.224 14.089C139.141 14.0972 139.058 14.1071 138.945 14.1205C138.857 14.131 138.75 14.1437 138.611 14.1595C139.54 14.6382 140.597 14.8105 141.63 14.6517C141.768 14.6392 141.906 14.6145 142.04 14.5779C142.424 14.4696 142.599 14.6271 142.629 15.0078C142.655 15.3404 142.683 15.673 142.711 16.0056C142.753 16.5048 142.796 17.0041 142.829 17.5033C142.873 18.9754 143.15 20.4312 143.649 21.8168C143.849 22.341 143.952 22.8968 143.955 23.4575C143.957 24.0933 144.004 24.7282 144.094 25.3575C144.137 25.4971 144.146 25.6449 144.121 25.7888C144.095 25.9326 144.036 26.0684 143.949 26.185C143.861 26.3017 143.746 26.3959 143.615 26.46C143.484 26.524 143.339 26.5561 143.193 26.5536C142.602 26.6367 142.008 26.7113 141.414 26.7859C141.14 26.8203 140.866 26.8547 140.593 26.8899C140.354 26.8913 140.12 26.9571 139.915 27.0803C140.994 27.363 142.112 27.4645 143.225 27.3805C144.339 27.2411 144.581 27.4117 144.701 28.529C144.762 30.0775 144.727 31.6282 144.596 33.1723C144.589 33.6232 144.564 34.0735 144.539 34.5239C144.496 35.3024 144.452 36.0812 144.501 36.8639C144.518 37.0343 144.499 37.2064 144.444 37.3688C144.39 37.5311 144.302 37.6802 144.186 37.806C144.07 37.9319 143.928 38.0317 143.771 38.099C143.613 38.1662 143.443 38.1994 143.272 38.1962C142.434 38.2377 141.599 38.3352 140.773 38.4883L141.31 38.841C141.428 38.7965 141.555 38.7818 141.68 38.7981C141.805 38.8144 141.924 38.8613 142.027 38.9345L142.498 39.074C142.532 39.045 142.575 39.0291 142.62 39.0291C142.665 39.0291 142.708 39.045 142.742 39.074C143.213 39.0546 143.683 39.1151 144.134 39.2528C144.282 39.3105 144.405 39.4178 144.482 39.5564C144.56 39.695 144.587 39.8562 144.559 40.0125C144.539 40.2962 144.33 40.2945 144.137 40.2928C144.089 40.2924 144.041 40.292 143.997 40.2964C142.335 40.4588 140.668 40.5654 138.998 40.5982C138.345 40.6112 138.075 40.564 137.963 40.6753ZM139.265 7.94135C138.908 8.03859 138.528 8.14177 138.656 8.71368C138.821 9.2087 138.913 9.72497 138.929 10.2464C138.888 10.5377 138.917 10.8345 139.013 11.1127C139.021 11.1329 139.03 11.1543 139.039 11.176C139.086 11.2933 139.137 11.4195 139.262 11.4195C139.597 11.4697 139.94 11.4074 140.237 11.2423C140.341 11.1355 140.407 10.9974 140.426 10.8493C140.444 10.7011 140.413 10.551 140.338 10.4219C140.13 9.77847 139.97 9.12035 139.859 8.45305C139.849 8.40643 139.841 8.35582 139.834 8.30467C139.798 8.0588 139.761 7.80052 139.367 7.91325C139.334 7.92283 139.3 7.93206 139.265 7.94135ZM137.467 43.7304L137.503 43.7189L137.501 43.7107C137.656 43.571 137.766 43.3877 137.815 43.1848C137.864 42.9819 137.851 42.7689 137.777 42.5737C137.656 42.298 137.379 42.3316 137.116 42.3636C137.025 42.3746 136.936 42.3855 136.855 42.3834C132.238 42.3322 127.642 41.7631 123.152 40.6869C123.1 40.6632 123.043 40.6509 122.986 40.6506C122.928 40.6503 122.872 40.662 122.819 40.6851C122.767 40.7081 122.719 40.7419 122.681 40.7844C122.642 40.8268 122.613 40.8768 122.594 40.9313C122.02 41.9532 121.522 43.016 121.105 44.1111C120.439 45.6447 120.019 47.2737 119.861 48.9381C119.726 51.3319 121.05 52.5838 123.417 52.231C123.869 52.165 124.316 52.0663 124.754 51.9357C127.077 51.1663 129.273 50.0578 131.271 48.646C132.603 47.7608 133.859 46.7755 135.115 45.7898C135.342 45.6118 135.569 45.4337 135.797 45.2563L135.918 45.1398C136.067 44.9216 136.282 44.7567 136.532 44.6689C136.55 44.6209 136.58 44.5783 136.619 44.5452C136.659 44.5122 136.706 44.4898 136.756 44.4802C136.756 44.476 136.757 44.4718 136.757 44.4676C136.758 44.4628 136.76 44.4581 136.762 44.4536C136.766 44.4453 136.771 44.4379 136.779 44.4322C136.786 44.4265 136.794 44.4225 136.803 44.4206C136.812 44.4187 136.821 44.4189 136.83 44.4212L136.994 44.2571L137.071 44.18L137.219 44.0503C137.237 43.9878 137.268 43.9301 137.311 43.8812C137.354 43.8324 137.407 43.7938 137.467 43.7681V43.7304ZM137.807 27.8637C137.804 27.0942 137.801 26.3249 137.81 25.5593L137.808 25.5511C137.813 25.1951 137.743 24.9982 137.319 25.0277C136.466 25.0737 135.611 25.0737 134.756 25.0737C134.648 25.0808 134.543 25.1121 134.449 25.1652C134.355 25.2183 134.274 25.2919 134.212 25.3805C133.392 26.2402 132.572 27.0994 131.75 27.9581C131.605 28.136 131.461 28.3145 131.317 28.493C130.964 28.9284 130.612 29.3637 130.251 29.7908C130.124 29.9401 130.067 30.0566 130.114 30.196C130.71 30.8659 131.054 31.7218 131.089 32.6175C131.123 33.5132 130.845 34.393 130.303 35.1065C129.76 35.82 128.986 36.3229 128.114 36.5291C127.242 36.7353 126.325 36.6322 125.52 36.2372C125.351 36.2585 125.228 36.3717 125.105 36.5981C124.814 37.1333 124.49 37.6505 124.167 38.1672C124.111 38.2556 124.056 38.344 124.001 38.4325C123.658 38.9887 123.672 39.0231 124.329 39.1741C128.551 40.0631 132.853 40.5216 137.168 40.5425C137.697 40.554 137.825 40.3899 137.825 39.8714C137.805 37.0569 137.807 34.2374 137.809 31.4245C137.809 30.6217 137.81 29.8194 137.81 29.018C137.81 28.6334 137.808 28.2485 137.807 27.8637ZM131.142 28.2173C131.184 28.2182 131.226 28.2121 131.266 28.1992V28.191C131.226 28.2066 131.184 28.2155 131.142 28.2173ZM121.303 27.1995C120.588 27.4145 119.875 27.6294 119.191 27.9285V27.9203C117.049 28.602 115.18 29.9485 113.855 31.7646L113.622 32.7211V32.941C113.962 34.0994 114.692 35.1046 115.688 35.786H115.696C117.668 37.0499 119.828 37.9914 122.096 38.5752C122.368 38.6474 122.558 38.6934 122.737 38.3865C123.257 37.5005 123.805 36.6277 124.365 35.7614C124.427 35.6762 124.464 35.5748 124.47 35.4693C123.828 34.8185 123.438 33.9615 123.368 33.0503C123.299 32.1392 123.554 31.2327 124.088 30.4917C124.623 29.7507 125.403 29.223 126.29 29.0022C127.177 28.7814 128.113 28.8817 128.933 29.2854C129.141 29.2854 129.291 29.1656 129.455 28.9573C129.692 28.6579 129.953 28.3781 130.214 28.0984C130.331 27.9734 130.448 27.8485 130.562 27.7218C130.576 27.6642 130.604 27.611 130.643 27.5671C130.683 27.5232 130.733 27.49 130.789 27.4708C131.354 26.7194 131.99 26.0229 132.686 25.3903V25.3526L132.718 25.3329C132.585 25.1721 132.425 25.2032 132.268 25.2339C132.215 25.2443 132.162 25.2545 132.111 25.2574C131.089 25.3116 130.074 25.4416 129.059 25.5716C128.446 25.6502 127.832 25.7288 127.217 25.7907L126.889 25.8218L122.678 26.7603C122.225 26.9219 121.764 27.0607 121.303 27.1995ZM132.686 25.3952C132.692 25.4289 132.696 25.4628 132.699 25.497V25.4888C132.696 25.4574 132.691 25.4262 132.686 25.3952ZM148.899 51.7601C147.513 51.1589 146.186 50.43 144.936 49.5829C144.832 49.5332 144.749 49.4474 144.704 49.3415C144.658 49.2356 144.653 49.1167 144.688 49.007C145.147 46.8083 145.486 44.5861 145.702 42.3505C145.745 41.942 145.879 41.7992 146.306 41.7418C148.261 41.5231 150.197 41.16 152.098 40.6557C152.297 40.5982 152.479 40.5523 152.604 40.7984C154.121 43.455 155.071 46.3976 155.393 49.4401C155.382 49.54 155.373 49.6434 155.363 49.749C155.342 49.9853 155.321 50.2323 155.273 50.4738C155.241 50.7937 155.145 51.104 154.992 51.3867C154.839 51.6694 154.631 51.9189 154.381 52.1207C154.131 52.3225 153.843 52.4725 153.534 52.5622C153.225 52.6518 152.902 52.6792 152.582 52.6428C151.304 52.6249 150.046 52.3234 148.899 51.7601Z" fill="#80519F"/>
</g>
</svg>
