<?xml version="1.0" encoding="UTF-8"?>
<!-- Generator: Adobe Illustrator 23.0.3, SVG Export Plug-In . SVG Version: 6.00 Build 0)  -->
<svg xmlns="http://www.w3.org/2000/svg" xmlns:xlink="http://www.w3.org/1999/xlink" version="1.1" id="Layer_1" x="0px" y="0px" viewBox="0 0 1000 1393.09" style="enable-background:new 0 0 1000 1393.09;" xml:space="preserve">
<style type="text/css">
	.st0{fill:#C2B066;}
	.st1{fill:#5F0006;}
</style>
<g>
	<polygon class="st0" points="825.28,382.26 825.28,541.87 626.11,421.48 626.11,266.62  "></polygon>
	<polygon class="st0" points="922.53,633.34 922.53,787.85 626.11,601.64 626.11,454.12  "></polygon>
	<polygon class="st0" points="607.98,80.32 607.98,320.43 462.01,478.39 462.01,299.78 589.41,108.22  "></polygon>
	<g>
		<polygon class="st1" points="808.18,250.9 626.11,132.14 626.11,249.95 808.18,355.66   "></polygon>
		<polygon class="st1" points="965.02,856.25 626.11,637.91 626.11,782.67 965.02,1093.59   "></polygon>
		<polygon class="st1" points="425.57,706.92 607.98,591.1 607.98,375.01 425.57,557.42   "></polygon>
		<path class="st1" d="M39.22,740.69L170.5,730.5c11.31,19.86,24.36,38.95,38.95,56.74L161.17,911.1l92.93,66.76l101.05-76.18    c24.96,11.92,51.13,21.25,78.08,27.98l37.92,117.81h125.75l37.92-117.81c26.77-6.65,52.86-15.98,77.64-27.72l78.6,71.6    l11.66-12.78l-82.91-75.49l-2.59-2.25h-5.35l-1.81,0.86c-26.6,13.13-54.84,23.23-83.95,30.14l-4.75,1.12l-37.05,115.04H483.75    L446.7,915.16l-4.75-1.12c-29.02-6.91-57.26-17.01-83.95-30.14l-1.81-0.86h-4.92l-97.42,73.41l-71.69-51.56l47.07-120.83    l-3.28-3.89c-16.32-19.61-30.83-40.77-43.01-62.88l-2.68-4.92L51.22,722.38l-28.07-82.14l112.02-77.04l-0.43-5.01    c-1.04-11.31-1.55-22.89-1.55-34.46c0-11.57,0.52-23.15,1.55-34.46l0.43-5.01L23.15,407.23l28.07-82.14l129.03,10.02l2.68-4.92    c12.18-22.11,26.69-43.27,43.01-62.88l3.28-3.89l-47.07-120.83l71.69-51.56l95.09,71.69l2.42,1.73h4.92l1.73-0.86    c26.6-13.13,54.84-23.23,83.95-30.14l4.75-1.12l37.05-115.04h100.53l12.44,38.43l16.41-5.27L596.89,0H471.14l-37.92,117.81    c-26.95,6.74-53.2,16.06-78.08,27.98L254.1,69.61l-92.93,66.76l48.28,123.85c-14.6,17.79-27.64,36.88-38.95,56.74L39.22,306.78    L2.6,413.96l114.52,78.85c-0.78,10.19-1.21,20.56-1.21,30.92s0.43,20.73,1.21,30.92L2.6,633.51L39.22,740.69z"></path>
		<path class="st1" d="M179.3,1145.46c-5.56-2.45-11.68-3.69-18.35-3.69c-6.91,0-13.23,1.23-18.96,3.69    c-5.74,2.46-10.89,5.91-15.45,10.37c-9.37,9.36-14.05,20.6-14.05,33.71c0,5.62,1.05,11.18,3.16,16.67    c2.11,5.51,5.21,10.77,9.31,15.81H54.73c-3.98,0-7.81-0.73-11.5-2.19c-3.69-1.47-7.23-3.84-10.62-7.11    c-3.16-3.63-5.53-7.29-7.11-10.98c-1.58-3.69-2.37-7.75-2.37-12.2v-28.63c0-5.5-1.7-9.94-5.09-13.34    c-1.52-1.52-3.25-2.81-5.18-3.86c-1.93-1.05-4.07-1.7-6.41-1.93v47.76c0,6.32,1.2,12.41,3.6,18.26c2.4,5.85,6,11.12,10.8,15.8    c9.13,9.13,20.48,13.7,34.06,13.7h154.34v-47.76c0-13.12-4.8-24.35-14.4-33.71C190.04,1151.37,184.86,1147.92,179.3,1145.46z     M192.56,1222.02h-31.61c-4.33,0-8.37-0.85-12.12-2.55s-7.32-4.07-10.71-7.11c-3.04-3.51-5.39-7.14-7.03-10.89    c-1.64-3.74-2.46-7.78-2.46-12.11c0-4.1,0.82-8.08,2.46-11.94c1.64-3.86,3.98-7.37,7.03-10.53c3.39-3.04,6.96-5.41,10.71-7.11    s7.78-2.55,12.12-2.55c8.66,0,16.04,3.22,22.12,9.66c6.32,6.67,9.48,14.17,9.48,22.48V1222.02z"></path>
		<path class="st1" d="M153.67,1101.57c-2.17,2.23-3.25,4.92-3.25,8.08c0,3.15,1.08,5.82,3.25,7.99s4.83,3.25,7.99,3.25    c3.16,0,5.82-1.08,7.99-3.25c2.16-2.17,3.25-4.83,3.25-7.99c0-3.16-1.08-5.85-3.25-8.08c-2.17-2.22-4.83-3.33-7.99-3.33    C158.49,1098.23,155.83,1099.35,153.67,1101.57z"></path>
		<path class="st1" d="M403.61,1264.51c-3.16,0-5.79,1.16-7.9,3.51c-2.1,2.34-3.16,5.15-3.16,8.43c0,3.16,1.05,5.83,3.16,7.99    c2.11,2.17,4.74,3.26,7.9,3.26c3.28,0,5.97-1.09,8.08-3.26c2.11-2.16,3.16-4.82,3.16-7.99c0-3.27-1.05-6.08-3.16-8.43    C409.58,1265.67,406.89,1264.51,403.61,1264.51z"></path>
		<path class="st1" d="M492.63,1110.17c-3.63,3.63-5.44,8.08-5.44,13.34v98.51h-28.97h-2.29h-14.22l0.17-31.6    c0-13.46-4.8-24.65-14.4-33.54c-4.56-4.45-9.66-7.9-15.27-10.37c-5.62-2.45-11.82-3.69-18.61-3.69h-27.57    c0.11,2.34,0.62,4.34,1.49,5.97c0.88,1.64,2.2,3.22,3.95,4.74c3.28,3.28,7.43,4.92,12.47,4.92h9.66c8.78,0,16.15,3.16,22.12,9.48    c6.2,6.56,9.31,14.05,9.31,22.48v31.6h-82.18h-1.4h-14.92v-32.66c0-13.34-4.8-24.59-14.4-33.71c-4.69-4.44-9.83-7.9-15.45-10.36    c-5.62-2.46-11.77-3.69-18.44-3.69c-6.67,0-12.9,1.23-18.7,3.69c-5.79,2.45-11.04,5.91-15.71,10.36    c-9.25,9.24-13.87,20.49-13.87,33.71c0,13.82,4.63,25.17,13.87,34.06c9.48,9.25,21.01,13.87,34.59,13.87h31.43v16.51    c0,5.26,1.76,9.66,5.27,13.17c3.51,3.51,7.32,5.44,11.42,5.79v-35.47h14.92h1.4h113.08h2.29h45.12v-132.22    c-2.34,0.12-4.33,0.62-5.97,1.49C495.73,1107.45,494.15,1108.65,492.63,1110.17z M309.85,1222.02h-31.6    c-4.21,0-8.16-0.85-11.85-2.55c-3.69-1.7-7.17-4.07-10.45-7.11c-3.28-3.51-5.74-7.14-7.37-10.89c-1.64-3.74-2.46-7.78-2.46-12.11    c0-4.22,0.85-8.19,2.55-11.94c1.7-3.74,4.12-7.25,7.28-10.53c6.44-6.44,13.87-9.66,22.3-9.66c8.43,0,15.86,3.22,22.3,9.66    c6.2,6.56,9.3,14.05,9.3,22.48V1222.02z"></path>
		<path class="st1" d="M541.44,1110.17c-3.04-3.04-6.73-4.74-11.06-5.09v113.78c0,2.7,0.49,5.15,1.49,7.38    c0.99,2.22,2.31,4.21,3.95,5.96c3.04,3.04,6.73,4.74,11.06,5.09v-113.78c0-2.69-0.5-5.18-1.49-7.46    C544.39,1113.77,543.08,1111.81,541.44,1110.17z"></path>
		<path class="st1" d="M610.44,1101.21c-2.1,2.11-3.16,4.81-3.16,8.08c0,3.16,1.05,5.85,3.16,8.08c2.11,2.22,4.74,3.33,7.9,3.33    c3.51,0,6.38-1.11,8.6-3.33c2.22-2.23,3.34-4.92,3.34-8.08c0-3.27-1.11-5.97-3.34-8.08c-2.23-2.1-5.09-3.15-8.6-3.15    C615.18,1098.06,612.55,1099.11,610.44,1101.21z"></path>
		<path class="st1" d="M644.42,1101.21c-2.17,2.11-3.25,4.81-3.25,8.08c0,3.16,1.08,5.85,3.25,8.08c2.17,2.22,4.82,3.33,7.99,3.33    s5.85-1.11,8.08-3.33c2.22-2.23,3.33-4.92,3.33-8.08c0-3.27-1.11-5.97-3.33-8.08c-2.23-2.1-4.92-3.15-8.08-3.15    S646.58,1099.11,644.42,1101.21z"></path>
		<path class="st1" d="M797.96,1145.64c-5.85-2.45-12.11-3.69-18.78-3.69c-6.79,0-13.02,1.23-18.7,3.69    c-5.68,2.46-10.75,5.91-15.19,10.37c-9.72,8.89-14.57,20.07-14.57,33.54c0,5.26,1.05,10.68,3.16,16.24    c2.11,5.57,5.32,10.97,9.66,16.24h-30.2h-2.99h-25.46v-32.48c0-6.55-1.26-12.64-3.77-18.26c-2.52-5.63-6.12-10.77-10.8-15.45    c-4.45-4.45-9.51-7.9-15.19-10.37c-5.68-2.45-11.91-3.69-18.7-3.69c-6.91,0-13.23,1.23-18.96,3.69    c-5.74,2.46-10.89,5.91-15.45,10.37c-4.57,4.56-8.05,9.66-10.45,15.27s-3.6,11.77-3.6,18.44c0,6.67,1.2,12.9,3.6,18.7    c2.4,5.79,5.88,10.91,10.45,15.36c9.13,9.13,20.6,13.7,34.41,13.7h73.92h2.99h114.13v-47.76c0-13.34-4.68-24.53-14.04-33.54    C808.96,1151.55,803.82,1148.1,797.96,1145.64z M667.85,1222.02h-31.6c-8.78,0-16.33-3.16-22.65-9.48    c-6.21-7.03-9.31-14.69-9.31-23c0-8.43,3.1-15.92,9.31-22.48c3.16-3.27,6.67-5.71,10.53-7.29c3.86-1.58,7.9-2.37,12.11-2.37    c8.43,0,15.86,3.22,22.3,9.66c6.2,6.55,9.3,14.04,9.3,22.48V1222.02z M811.13,1222.02h-31.95c-8.2,0-15.63-3.16-22.3-9.48    c-6.21-7.03-9.31-14.75-9.31-23.18c0-8.43,3.1-15.92,9.31-22.48c6.44-6.44,13.87-9.66,22.3-9.66c4.21,0,8.19,0.85,11.93,2.55    s7.31,4.07,10.71,7.11c3.04,3.28,5.36,6.82,6.93,10.63c1.59,3.8,2.37,7.75,2.37,11.85V1222.02z"></path>
		<path class="st1" d="M770.05,1101.57c-2.11,2.23-3.16,4.92-3.16,8.08c0,3.15,1.05,5.82,3.16,7.99c2.11,2.17,4.8,3.25,8.08,3.25    c3.15,0,5.79-1.08,7.89-3.25c2.11-2.17,3.16-4.83,3.16-7.99c0-3.16-1.05-5.85-3.16-8.08c-2.1-2.22-4.74-3.33-7.89-3.33    C774.84,1098.23,772.15,1099.35,770.05,1101.57z"></path>
		<path class="st1" d="M931.14,1101.39c-2.17,2.23-3.25,4.92-3.25,8.08c0,3.16,1.08,5.82,3.25,7.99c2.16,2.17,4.82,3.25,7.99,3.25    s5.82-1.08,7.99-3.25c2.17-2.17,3.25-4.82,3.25-7.99c0-3.16-1.08-5.85-3.25-8.08c-2.17-2.22-4.82-3.33-7.99-3.33    S933.3,1099.17,931.14,1101.39z"></path>
		<path class="st1" d="M992.24,1231.5c-0.76-1.52-1.96-3.1-3.6-4.74c-3.15-3.16-7.31-4.74-12.47-4.74h-29.49    c-8.54,0-15.97-3.16-22.3-9.48c-6.2-7.03-9.3-14.75-9.3-23.18c0-8.43,3.1-15.92,9.3-22.48c6.33-6.32,13.76-9.48,22.3-9.48h9.48    c2.69,0,5.06-0.44,7.11-1.32s3.9-2.13,5.53-3.78c1.64-1.52,2.87-3.07,3.69-4.65c0.82-1.59,1.35-3.54,1.59-5.89h-27.39    c-6.67,0-12.85,1.23-18.52,3.69c-5.68,2.46-10.75,5.91-15.19,10.37c-4.92,4.44-8.54,9.51-10.89,15.18    c-2.34,5.68-3.51,11.8-3.51,18.35c0,5.38,1.02,10.8,3.07,16.24c2.05,5.45,5.24,10.86,9.57,16.24l-5.97,0.18h-16.68h-3.33h-10.89    v-80.42c-2.23,0.24-4.2,0.85-5.97,1.85c-1.75,1-3.44,2.25-5.08,3.78c-3.41,3.39-5.09,7.84-5.09,13.34v111.84    c2.33-0.11,4.35-0.64,6.06-1.58c1.69-0.94,3.36-2.34,4.99-4.21c1.65-1.64,2.9-3.52,3.78-5.63c0.88-2.1,1.32-4.62,1.32-7.55v-16.15    h10.89h3.33h105C993.44,1234.96,993,1233.02,992.24,1231.5z"></path>
	</g>
	<g>
		<path class="st0" d="M30.14,1314.12h11.34l30.14,77.13H60.28l-8.43-23.23H19.23l-8.64,23.23H0L30.14,1314.12z M22.47,1359.39    h26.14l-12.85-35.97h-0.22L22.47,1359.39z"></path>
		<path class="st0" d="M79.18,1314.12h10.26v68.49h40.83v8.65h-51.1V1314.12z"></path>
		<path class="st0" d="M208.49,1372.02c0,2.6-0.38,5.15-1.13,7.68c-0.76,2.52-2.02,4.77-3.78,6.75s-4.1,3.58-7.02,4.81    c-2.91,1.22-6.54,1.84-10.86,1.84c-7.2,0-12.75-1.93-16.64-5.78c-3.89-3.85-5.83-9.42-5.83-16.69v-4.76h10.26v3.24    c0,2.24,0.18,4.28,0.54,6.16c0.36,1.88,0.99,3.5,1.89,4.87c0.9,1.37,2.16,2.43,3.78,3.19c1.62,0.75,3.69,1.13,6.21,1.13    c4.68,0,7.9-1.26,9.67-3.78c1.76-2.52,2.64-5.9,2.64-10.16v-56.39h10.26V1372.02z"></path>
		<path class="st0" d="M221.02,1352.69c0-5.26,0.78-10.32,2.32-15.18c1.55-4.86,3.87-9.17,6.97-12.91c3.1-3.74,6.95-6.73,11.56-8.97    c4.61-2.23,9.97-3.35,16.1-3.35c6.12,0,11.49,1.12,16.1,3.35c4.61,2.24,8.46,5.23,11.56,8.97c3.1,3.74,5.42,8.05,6.97,12.91    c1.55,4.86,2.32,9.92,2.32,15.18c0,5.25-0.78,10.32-2.32,15.17c-1.55,4.86-3.87,9.17-6.97,12.91c-3.1,3.74-6.95,6.73-11.56,8.97    c-4.61,2.23-9.98,3.35-16.1,3.35c-6.12,0-11.49-1.12-16.1-3.35c-4.61-2.24-8.46-5.22-11.56-8.97s-5.42-8.05-6.97-12.91    C221.8,1363.01,221.02,1357.95,221.02,1352.69z M231.29,1352.69c0,3.89,0.5,7.72,1.51,11.5c1.01,3.78,2.59,7.18,4.75,10.21    c2.16,3.03,4.93,5.46,8.32,7.29c3.39,1.84,7.42,2.76,12.1,2.76c4.68,0,8.71-0.92,12.1-2.76c3.39-1.83,6.16-4.26,8.32-7.29    c2.16-3.03,3.74-6.43,4.75-10.21c1.01-3.79,1.51-7.62,1.51-11.5c0-3.9-0.5-7.73-1.51-11.51c-1.01-3.78-2.59-7.18-4.75-10.21    c-2.16-3.03-4.93-5.46-8.32-7.29c-3.39-1.84-7.42-2.76-12.1-2.76c-4.68,0-8.71,0.92-12.1,2.76c-3.39,1.83-6.16,4.26-8.32,7.29    c-2.16,3.03-3.74,6.43-4.75,10.21C231.79,1344.97,231.29,1348.79,231.29,1352.69z"></path>
		<path class="st0" d="M369.02,1363.39c0,9.79-2.64,17.19-7.94,22.2c-5.29,5-12.77,7.51-22.41,7.51c-4.97,0-9.42-0.58-13.34-1.73    c-3.93-1.16-7.24-2.95-9.94-5.41c-2.7-2.45-4.77-5.54-6.21-9.29c-1.44-3.74-2.16-8.17-2.16-13.28v-49.27h10.26v49.27    c0,6.84,1.86,12.06,5.56,15.66c3.71,3.6,8.99,5.4,15.83,5.4c6.55,0,11.54-1.8,14.96-5.4c3.42-3.6,5.13-8.82,5.13-15.66v-49.27    h10.26V1363.39z"></path>
		<path class="st0" d="M385.44,1314.12h50.67v8.65h-40.4v24.52h35.43v8.65H395.7v35.32h-10.26V1314.12z"></path>
		<path class="st0" d="M531.71,1337.35c-0.58-2.74-1.51-5.14-2.81-7.19c-1.29-2.05-2.9-3.76-4.81-5.13    c-1.91-1.37-4.05-2.4-6.43-3.08c-2.37-0.68-4.9-1.03-7.56-1.03c-4.61,0-8.55,0.86-11.83,2.59c-3.28,1.73-5.98,4.06-8.1,6.97    c-2.13,2.92-3.69,6.25-4.7,9.99c-1.01,3.74-1.51,7.63-1.51,11.66c0,4.39,0.5,8.56,1.51,12.48c1.01,3.92,2.57,7.35,4.7,10.26    c2.12,2.91,4.84,5.24,8.16,6.97c3.31,1.73,7.27,2.59,11.88,2.59c3.38,0,6.39-0.56,9.02-1.67c2.63-1.12,4.9-2.67,6.81-4.65    c1.91-1.98,3.4-4.34,4.48-7.08c1.08-2.74,1.72-5.69,1.94-8.86h10.26c-1.01,9.65-4.37,17.21-10.1,22.68    c-5.73,5.47-13.49,8.22-23.28,8.22c-5.98,0-11.2-1.05-15.67-3.14c-4.47-2.08-8.17-4.93-11.12-8.54    c-2.95-3.59-5.17-7.84-6.64-12.74c-1.48-4.89-2.22-10.15-2.22-15.77s0.79-10.89,2.38-15.82c1.58-4.93,3.91-9.24,6.97-12.91    c3.06-3.67,6.86-6.57,11.4-8.7s9.79-3.19,15.77-3.19c4.03,0,7.85,0.54,11.45,1.62c3.6,1.08,6.81,2.67,9.62,4.76    c2.81,2.09,5.15,4.7,7.02,7.84c1.87,3.13,3.1,6.75,3.67,10.86H531.71z"></path>
		<path class="st0" d="M555.47,1314.12h10.26v33.16h40.62v-33.16h10.26v77.13h-10.26v-35.32h-40.62v35.32h-10.26V1314.12z"></path>
		<path class="st0" d="M654.43,1314.12h11.34l30.14,77.13h-11.34l-8.43-23.23h-32.62l-8.64,23.23h-10.59L654.43,1314.12z     M646.76,1359.39h26.14l-12.85-35.97h-0.22L646.76,1359.39z"></path>
		<path class="st0" d="M703.69,1314.12h14.04l24.31,64.82l24.41-64.82h14.04v77.13h-9.72v-64.17h-0.21l-24.09,64.17h-8.75    l-24.09-64.17h-0.22v64.17h-9.72V1314.12z"></path>
		<path class="st0" d="M797.56,1314.12h27.98c1.73,0,3.53,0.02,5.41,0.05c1.87,0.04,3.73,0.15,5.56,0.33    c1.84,0.18,3.58,0.45,5.25,0.81c1.65,0.36,3.05,0.9,4.21,1.62c2.52,1.51,4.66,3.62,6.43,6.32c1.76,2.71,2.65,5.96,2.65,9.78    c0,4.11-1.01,7.66-3.03,10.64c-2.02,2.99-4.82,5.2-8.43,6.65v0.21c4.76,1.01,8.39,3.17,10.91,6.49c2.52,3.31,3.78,7.35,3.78,12.09    c0,2.81-0.51,5.55-1.51,8.22c-1.01,2.67-2.51,5.02-4.49,7.08c-1.98,2.05-4.43,3.71-7.35,4.97c-2.91,1.26-6.28,1.89-10.1,1.89    h-37.27V1314.12z M807.82,1347.28h20.52c5.84,0,10.03-1.03,12.58-3.08s3.84-5.13,3.84-9.24c0-2.67-0.43-4.81-1.3-6.43    c-0.86-1.62-2.05-2.87-3.56-3.73c-1.52-0.86-3.26-1.42-5.24-1.67c-1.98-0.25-4.09-0.38-6.33-0.38h-20.52V1347.28z M807.82,1382.61    h25.71c4.46,0,8-1.24,10.59-3.73c2.6-2.48,3.89-5.85,3.89-10.1c0-2.52-0.46-4.61-1.4-6.27c-0.94-1.65-2.18-2.97-3.73-3.94    c-1.55-0.98-3.33-1.66-5.35-2.06c-2.02-0.4-4.11-0.59-6.27-0.59h-23.44V1382.61z"></path>
		<path class="st0" d="M871.56,1314.12h53.25v8.65h-42.99v24.52h40.08v8.65h-40.08v26.68h43.32v8.65h-53.58V1314.12z"></path>
		<path class="st0" d="M937.56,1314.12h36.3c7.27,0,13,1.82,17.17,5.46c4.18,3.64,6.27,8.55,6.27,14.74c0,4.68-1.06,8.79-3.19,12.31    c-2.13,3.53-5.52,5.95-10.21,7.24v0.22c2.23,0.43,4.05,1.16,5.46,2.16c1.4,1.01,2.53,2.22,3.4,3.62c0.86,1.41,1.48,2.97,1.84,4.7    c0.35,1.73,0.65,3.53,0.86,5.41c0.14,1.87,0.27,3.8,0.38,5.78c0.11,1.98,0.29,3.89,0.54,5.73c0.25,1.84,0.65,3.6,1.19,5.29    c0.54,1.7,1.35,3.19,2.43,4.49h-11.45c-0.72-0.79-1.21-1.87-1.45-3.24c-0.25-1.37-0.42-2.9-0.49-4.6    c-0.08-1.69-0.14-3.51-0.22-5.45c-0.07-1.95-0.29-3.85-0.65-5.73c-0.29-1.87-0.64-3.65-1.08-5.35c-0.43-1.7-1.11-3.17-2.05-4.43    c-0.94-1.27-2.18-2.27-3.73-3.03c-1.55-0.76-3.55-1.13-6-1.13h-25.06v32.94h-10.26V1314.12z M969.21,1349.66    c2.38,0,4.65-0.18,6.81-0.54c2.16-0.36,4.05-1.06,5.67-2.11c1.62-1.05,2.92-2.45,3.89-4.21c0.97-1.77,1.46-4.06,1.46-6.87    c0-3.81-1.08-6.97-3.24-9.45c-2.16-2.49-5.66-3.73-10.48-3.73h-25.5v26.9H969.21z"></path>
	</g>
</g>
</svg>
